<svg aria-hidden="true" style="position: absolute; width: 0; height: 0; overflow: hidden;" version="1.1" xmlns="http://www.w3.org/2000/svg" xmlns:xlink="http://www.w3.org/1999/xlink">
<defs>
<symbol id="bg-pattern-circle" viewBox="0 0 32 32">
<path fill="#36536b" style="fill: var(--color1, #36536b)" opacity="0.15" d="M32 16c0 8.837-7.163 16-16 16s-16-7.163-16-16c0-8.837 7.163-16 16-16s16 7.163 16 16z"></path>
</symbol>
<symbol id="close" viewBox="0 0 31 32">
<path fill="#fbfcfe" style="fill: var(--color2, #fbfcfe)" d="M27.602 0.751l2.951 2.95-12.299 12.299 12.299 12.298-2.951 2.951-12.299-12.299-12.296 12.299-2.951-2.95 12.296-12.299-12.296-12.296 2.95-2.952 12.299 12.296 12.298-12.296z"></path>
</symbol>
<symbol id="facebook" viewBox="0 0 32 32">
<path fill="#fbfcfe" style="fill: var(--color2, #fbfcfe)" d="M30.233 0h-28.467c-0.976 0-1.767 0.791-1.767 1.767v28.468c0 0.975 0.791 1.765 1.767 1.765h15.327v-12.392h-4.171v-4.829h4.171v-3.561c0-4.133 2.524-6.384 6.212-6.384 1.767 0 3.284 0.132 3.727 0.191v4.32l-2.557 0.001c-2.005 0-2.393 0.953-2.393 2.351v3.084h4.783l-0.623 4.829h-4.16v12.391h8.155c0.973 0 1.764-0.791 1.764-1.767v-28.467c0-0.976-0.791-1.767-1.767-1.767z"></path>
</symbol>
<symbol id="google" viewBox="0 0 94 32">
<path fill="#36536b" style="fill: var(--color1, inherit)" d="M72.357 7.758l-1.291 1.334h-1.716c1.406 1.235 2.023 2.555 2.023 4.089 0 2.236-1.221 3.357-2.085 4.114-0.158 0.145-0.58 0.448-0.824 0.714-0.138 0.163-0.515 0.594-0.515 1.246 0 0.456 0.146 0.843 0.903 1.451 2.574 1.993 3.59 3.148 3.59 5.256 0 2.991-2.75 6.038-8.061 6.038-4.485 0-6.62-2.267-6.62-4.571 0-2.631 2.36-5.079 8.233-5.449-0.621-0.727-0.913-1.2-0.913-2.040 0.001-0.571 0.237-1.161 0.237-1.161h-0.863c-3.413 0-5.068-2.693-5.068-5.079 0-3.135 2.321-5.942 6.612-5.942h6.359zM66.511 22.947c-4.405 0.063-6.012 1.78-6.012 3.776 0 2.41 2.344 3.885 5.41 3.885 2.793 0 4.517-1.507 4.517-3.428 0-1.398-0.784-2.182-2.039-3.21-0.54-0.426-1.312-0.996-1.312-0.996s-0.236-0.027-0.562-0.027zM13.103 0c4.092 0 6.955 1.245 8.931 2.556l-3.124 3.062v-1.845c-1.667-1.481-3.53-2.543-6.732-2.543-5.061 0-8.688 3.846-8.688 9.329 0 5.591 4.011 11.316 10.833 11.316 1.683 0 3.303-0.223 4.586-0.626v-5.656h-4.111l1.377-1.338h7.331l-1.079 1.057c-0.2 0.18-0.334 0.386-0.334 0.685v5.844c-3.425 0.933-6.385 1.432-9.721 1.432-6.882 0-12.356-4.436-12.356-11.801 0-5.176 4.106-11.472 13.088-11.472zM32.717 7.758c4.461 0.001 7.426 3.497 7.426 7.096 0 3.864-3.034 7.449-7.981 7.449-5.141 0-7.679-3.892-7.679-7.17 0-3.797 3.151-7.375 8.235-7.375zM79.139 0l-1.125 1.105c-0.182 0.157-0.297 0.388-0.297 0.646 0 0.008 0 0.016 0 0.024l-0-0.001v18.511c0 0.398 0.286 0.806 0.766 0.863l1.788 0.22-0.95 0.934h-6.23l1.141-1.119c0.187-0.191 0.274-0.376 0.274-0.649v-19.175h-2.065l1.384-1.361h5.314zM87.537 7.758c3.735 0 5.361 1.927 5.937 3.84l-9.983 3.756c0.953 3.488 3.677 5.386 6.503 5.386 1.487 0 2.607-0.423 3.979-1.067-0.727 0.905-1.722 1.625-2.758 2.069-0.965 0.412-1.995 0.561-3.245 0.561-5.015 0-7.699-3.857-7.699-7.562 0.001-4.486 3.742-6.984 7.264-6.984zM50.333 7.758c4.461 0.001 7.426 3.497 7.426 7.096 0 3.864-3.035 7.449-7.981 7.449-5.141 0-7.679-3.892-7.679-7.17 0.001-3.797 3.151-7.375 8.235-7.375zM31.874 8.801c-0.582 0-1.468 0.111-2.415 0.693-1.158 0.778-1.893 1.834-1.893 3.997 0 2.172 0.766 4.396 1.549 5.591 0.89 1.299 2.078 2.288 3.779 2.288h0.067c0.663-0.015 4.093-0.281 4.093-4.865 0-3.208-1.596-7.705-5.18-7.705zM49.491 8.801c-0.582 0-1.469 0.111-2.415 0.693-1.158 0.778-1.893 1.834-1.893 3.997 0 2.172 0.766 4.396 1.549 5.591 0.889 1.299 2.078 2.288 3.779 2.288h0.067c0.663-0.015 4.093-0.281 4.093-4.865 0-3.208-1.596-7.705-5.18-7.705zM64.814 8.755c-1.5 0-2.762 1.164-2.762 3.353 0 2.424 1.135 4.463 2.277 5.229 0.514 0.364 1.122 0.51 1.629 0.51 1.035 0 2.948-0.696 2.948-3.243 0-2.358-1.216-4.265-1.977-4.975-0.687-0.591-1.336-0.875-2.114-0.875zM86.882 8.784c-1.249 0-3.782 0.871-3.782 4.131 0 0.777 0.167 1.496 0.167 1.496l6.136-2.31c0.488-0.179 0.735-0.372 0.735-0.739 0-1.133-1.367-2.579-3.256-2.579z"></path>
</symbol>
<symbol id="hewlett-packard" viewBox="0 0 168 32">
<path fill="#36536b" style="fill: var(--color1, inherit)" d="M82.362 19.405l5.703 12.595h-2.937l-1.029-2.279h-7.213l-1.017 2.279h-3.048l5.816-12.595h3.725zM142.347 19.405c2.033 0 3.782 1.425 3.782 3.989 0 2.279-0.45 3.134-1.129 3.705 0.903 0.455 1.129 1.537 1.129 2.278v2.62h-2.709v-2.278c0-0.513-0.565-1.426-1.695-1.426h-4.853v3.706h-2.823v-12.595zM107.305 19.417v4.722h1.24l4.904-4.722h3.833l-6.033 5.915 5.017 5.006v1.65h-2.143l-5.353-5.234h-1.464v5.234h-2.876v-12.571h2.876zM69.599 19.424c1.519 0 3.603 0.966 3.603 4.545 0 3.524-1.915 4.488-3.604 4.488h-6.194v3.524h-2.872v-12.557zM158.191 19.426c2.364 0 3.49 1.647 3.49 3.863v3.836c-0.014 1.787-0.314 4.852-3.546 4.852h-9.173v-12.551zM126.203 19.43l5.685 12.545h-2.927l-1.025-2.271h-7.191l-1.012 2.271h-2.251v-1.76l5.007-10.785h3.713zM99.106 19.437c1.799 0.056 2.866 1.928 2.866 3.006v1.076h-2.867c-0.058-0.568-0.563-1.416-1.012-1.416h-4.948c-1.122 0-0.954 1.133-0.954 1.133v4.99c0 0.908 0.562 1.134 0.9 1.134h4.89c1.067 0 1.182-0.907 1.182-1.474h2.809v1.134c0 1.873-1.292 2.949-2.865 2.949h-6.859c-2.137 0-2.924-1.645-2.924-2.949v-6.635c0-1.416 1.517-2.948 2.867-2.948zM48.024 0c2.335 0 4.228 1.873 4.228 4.231v23.372c0 0.001 0 0.001 0 0.002 0 1.173-0.474 2.236-1.24 3.007l0-0c-0.76 0.764-1.811 1.237-2.974 1.237-0.005 0-0.009 0-0.014-0h-19.98l0.851-2.572c7.087-1.052 12.498-6.633 12.498-13.361 0-7.237-6.261-13.148-14.138-13.522l0.905-2.395h19.864zM21.198 0l-1.013 2.844c-4.877 2.613-8.532 7.867-8.532 13.073 0 5.924 4.207 11.15 10.060 13.049l-1.020 2.884h-15.653c-2.329 0-4.217-1.926-4.217-4.279v-23.307c-0.001-2.351 1.886-4.26 4.217-4.263h16.159zM35.314 9.365c1.574 0 3.206 0.827 2.362 3.087l-2.419 6.728c-0.45 1.268-0.844 2.151-3.207 2.151h-2.957l-3.342 9.483h-3.208l7.538-21.449zM157.461 22.040h-5.63v7.324h5.404c1.012 0 1.575-0.965 1.575-2.043v-3.579c0.058-0.793-0.505-1.702-1.351-1.702zM80.499 21.741l-2.427 5.357h4.799l-2.372-5.357zM124.347 21.758l-2.42 5.336h4.828l-2.408-5.336zM68.754 22.037h-5.35v3.807h5.518c1.24 0 1.24-1.306 1.24-1.874v-0.083c-0.004-0.607-0.064-1.849-1.408-1.849zM141.723 22.027h-4.853v3.647h5.193c1.073 0 1.355-1.311 1.355-1.937 0-0.628-0.282-1.71-1.695-1.71zM25.996 0l-3.364 9.419h1.907c1.961 0 2.971 0.825 2.466 2.472s-3.364 9.445-3.364 9.445h-3.307l3.307-9.225c0.111-0.55 0.111-1.043-0.559-1.043h-1.010l-3.699 10.268-3.196-0.002 7.567-21.333h3.251zM34.133 11.020h-1.407l-3.051 8.658h1.419c0.563 0 0.844-0.607 0.901-0.937 0.004-0.020 0.014-0.060 0.033-0.121l0.075-0.235c0.173-0.524 0.53-1.542 0.913-2.623l0.21-0.593c0.599-1.682 1.189-3.322 1.189-3.322 0.168-0.441 0.225-0.827-0.281-0.827zM92.776 0.185l2.656 8.609 2.824-8.552h2.711l2.823 8.552 2.655-8.609h2.88l-4.065 12.601h-1.695c-0.847-0.001-1.665-1.284-1.836-1.911l-2.117-6.585-2.767 8.495h-1.751c-0.847 0-1.582-1.311-1.752-1.938l-3.447-10.663h2.88zM161.611 0.187v2.622h-4.205v9.971h-2.878v-9.971h-4.148v-2.622h11.231zM88.273 0.198v2.619h-8.681v2.332h7.215v2.617h-7.215v2.389h8.681v2.616h-9.752c-1.128 0-1.804-0.91-1.804-1.65v-9.047c0-1.138 0.676-1.877 1.972-1.877h9.583zM148.312 0.196v2.619h-4.201v9.957h-2.874v-9.957h-4.145v-2.619h11.22zM134.985 0.203v2.615h-8.676v2.331h7.211v2.615h-7.211v2.388h8.676v2.615h-9.746c-1.128 0-1.804-0.909-1.804-1.649v-9.037c0-1.138 0.676-1.877 1.972-1.877h9.576zM63.404 0.206v4.942h7.489v-4.941h2.872v12.557h-2.872v-5.001h-7.49v5.001h-2.871v-12.558h2.872zM114.283 0.211v9.934h7.597v2.612h-8.442c-1.294 0-2.027-0.908-2.027-1.873v-10.675h2.872zM165.502 0.111c0.743-0.012 1.458 0.284 1.978 0.82 0.543 0.548 0.817 1.21 0.817 1.988 0.012 0.751-0.284 1.473-0.818 1.998-0.489 0.511-1.176 0.829-1.937 0.829-0.014 0-0.028-0-0.042-0l0.002 0c-0.013 0-0.029 0-0.044 0-0.759 0-1.444-0.318-1.928-0.828l-0.001-0.001c-0.5-0.497-0.81-1.186-0.81-1.947 0-0.018 0-0.036 0-0.054l-0 0.003c-0-0.012-0-0.026-0-0.041 0-0.762 0.313-1.452 0.818-1.947l0-0c0.487-0.506 1.17-0.82 1.927-0.82 0.013 0 0.027 0 0.040 0l-0.002-0zM165.503 0.491c-0.664 0-1.228 0.237-1.696 0.713-0.467 0.473-0.699 1.044-0.699 1.714-0.012 0.647 0.239 1.272 0.696 1.727 0.418 0.44 1.007 0.714 1.66 0.714 0.013 0 0.027-0 0.040-0l-0.002 0c0.64 0.011 1.256-0.249 1.7-0.713 0.467-0.476 0.699-1.051 0.699-1.727 0-0.67-0.232-1.241-0.699-1.714-0.42-0.44-1.011-0.714-1.666-0.714-0.012 0-0.023 0-0.034 0l0.002-0z"></path>
</symbol>
<symbol id="icon-banking-and-coverage" viewBox="0 0 32 32">
<path fill="#36536b" style="fill: var(--color1, #36536b)" d="M32 16c0 8.837-7.163 16-16 16s-16-7.163-16-16c0-8.837 7.163-16 16-16s16 7.163 16 16z"></path>
<path fill="#fff" style="fill: var(--color3, #fff)" d="M20.953 13.5c0.196 0 0.354 0.158 0.354 0.354v7.476h0.377c0.195 0 0.354 0.158 0.354 0.354s-0.158 0.354-0.354 0.354v0h-11.368c-0.195 0-0.354-0.158-0.354-0.354s0.158-0.354 0.354-0.354v0h0.377v-3.938c0-0.195 0.158-0.354 0.354-0.354h1.415c0.196 0 0.354 0.159 0.354 0.354v3.939h0.708v-2.524c0-0.195 0.158-0.354 0.354-0.354h1.415c0.196 0 0.354 0.158 0.354 0.354v2.524h0.708v-5.355c0-0.196 0.158-0.354 0.354-0.354h1.415c0.196 0 0.354 0.158 0.354 0.354v5.354h0.708v-7.476c0-0.196 0.158-0.354 0.354-0.354zM20.245 9.962c0.586 0.001 1.061 0.476 1.061 1.061v0c-0.001 0.586-0.476 1.060-1.061 1.061h-0c-0.217 0-0.419-0.066-0.587-0.178l-1.234 0.926c0.031 0.1 0.053 0.204 0.053 0.314-0 0.586-0.475 1.061-1.061 1.062h-0c-0.166-0.001-0.322-0.040-0.461-0.109l0.006 0.003-1.42 1.421c0.066 0.138 0.106 0.291 0.106 0.455-0.001 0.586-0.476 1.061-1.061 1.061h-0c-0.586-0.001-1.060-0.476-1.061-1.061v-0c0-0.044 0.008-0.086 0.013-0.129l-1.047-0.523c-0.19 0.184-0.449 0.298-0.735 0.298h-0c-0.586-0.001-1.060-0.476-1.061-1.061v-0c0.001-0.586 0.476-1.060 1.061-1.061h0c0.586 0.001 1.060 0.475 1.061 1.061v0c0 0.044-0.008 0.086-0.013 0.129l1.047 0.524c0.19-0.184 0.449-0.298 0.735-0.299h0c0.163 0 0.316 0.040 0.455 0.107l1.42-1.421c-0.066-0.133-0.105-0.289-0.106-0.454v-0c0.001-0.586 0.476-1.061 1.061-1.061h0c0.217 0 0.419 0.066 0.587 0.179l1.234-0.926c-0.032-0.094-0.051-0.201-0.053-0.313v-0.001c0.001-0.586 0.476-1.061 1.061-1.061h0z"></path>
</symbol>
<symbol id="icon-check" viewBox="0 0 41 32">
<path fill="none" stroke="#ba4270" style="stroke: var(--color4, inherit)" stroke-linejoin="miter" stroke-linecap="butt" stroke-miterlimit="4" stroke-width="5.8182" d="M2.909 16.634l11.325 11.177 23.584-23.273"></path>
</symbol>
<symbol id="icon-consumer-payments" viewBox="0 0 32 32">
<path fill="#36536b" style="fill: var(--color1, #36536b)" d="M32 16c0 8.837-7.163 16-16 16s-16-7.163-16-16c0-8.837 7.163-16 16-16s16 7.163 16 16z"></path>
<path fill="#fff" style="fill: var(--color3, #fff)" d="M21.739 15.079c0.156 0 0.283 0.127 0.283 0.283v3.121c0 0.899-0.729 1.627-1.627 1.627h-8.805c-0.899 0-1.627-0.728-1.627-1.627v-3.122c0-0.156 0.127-0.283 0.283-0.283zM12.973 16.352h-0.755c-0.273 0-0.495 0.222-0.495 0.495s0.222 0.495 0.495 0.495v0h0.755c0.273 0 0.495-0.222 0.495-0.495s-0.222-0.495-0.495-0.495v0zM20.395 12.075c0 0 0 0 0 0 0.899 0 1.627 0.729 1.627 1.627v0.103c0 0.156-0.127 0.283-0.283 0.283h-11.494c-0.156-0-0.283-0.127-0.283-0.283v0-0.102c0-0 0-0 0-0 0-0.899 0.729-1.627 1.627-1.627v0z"></path>
</symbol>
<symbol id="icon-personal-finances" viewBox="0 0 32 32">
<path fill="#36536b" style="fill: var(--color1, #36536b)" d="M32 16c0 8.837-7.163 16-16 16s-16-7.163-16-16c0-8.837 7.163-16 16-16s16 7.163 16 16z"></path>
<path fill="#edf3f8" style="fill: var(--color5, #edf3f8)" d="M17.255 14.841l1.409 2.959c0.060 0.126 0.113 0.254 0.159 0.382h-2.235v2.639h-0.879v2.59c-0.203 0.031-0.409 0.048-0.617 0.048h-1.169c-0.003 0-0.007 0-0.011 0-1.399 0-2.627-0.729-3.325-1.829l-0.009-0.016c-0.385-0.598-0.614-1.328-0.614-2.111 0-0.619 0.143-1.205 0.398-1.726l-0.010 0.023 1.409-2.959h5.496zM21.131 21.7v1.759h-4.543v-1.759h4.543zM22.011 19.062v1.759h-4.544v-1.759h4.543zM14.707 16.747h-0.324v0.411c-0.127 0.014-0.246 0.045-0.358 0.094-0.114 0.049-0.211 0.115-0.294 0.196l0-0c-0.084 0.081-0.15 0.178-0.198 0.291s-0.073 0.242-0.073 0.388c0 0.106 0.014 0.199 0.043 0.281s0.072 0.154 0.132 0.218c0.059 0.064 0.135 0.121 0.227 0.171s0.201 0.097 0.328 0.14c0.084 0.030 0.167 0.056 0.251 0.077v0.358c-0.107-0.015-0.203-0.040-0.295-0.074l0.010 0.003c-0.099-0.035-0.18-0.070-0.258-0.11l0.013 0.006c-0.094-0.045-0.17-0.089-0.245-0.136l0.010 0.006-0.34 0.696c0.142 0.085 0.306 0.158 0.478 0.211l0.016 0.004c0.184 0.057 0.368 0.094 0.555 0.11v0.5h0.324v-0.492c0.124-0.008 0.245-0.030 0.36-0.067 0.119-0.037 0.222-0.093 0.312-0.165l-0.002 0.002c0.091-0.072 0.164-0.164 0.219-0.277s0.083-0.248 0.083-0.408c0-0.136-0.020-0.251-0.061-0.346s-0.1-0.177-0.173-0.241l-0.001-0.001c-0.075-0.066-0.167-0.124-0.274-0.173-0.097-0.045-0.215-0.091-0.337-0.129l-0.021-0.006c-0.037-0.010-0.066-0.019-0.094-0.029l0.009 0.003c-0.020-0.008-0.046-0.015-0.072-0.022l-0.005-0.001v-0.366c0.075 0.014 0.151 0.033 0.225 0.059s0.141 0.054 0.2 0.083c0.070 0.033 0.135 0.068 0.194 0.106l0.34-0.655c-0.057-0.027-0.119-0.056-0.186-0.088-0.052-0.025-0.123-0.055-0.196-0.082l-0.021-0.007c-0.061-0.024-0.141-0.049-0.223-0.071l-0.018-0.004c-0.072-0.020-0.16-0.037-0.25-0.048l-0.010-0.001v-0.415zM14.651 19.082c0.054 0.022 0.097 0.047 0.13 0.075 0.029 0.024 0.048 0.059 0.048 0.1v0c0 0.035-0.013 0.064-0.040 0.085s-0.072 0.035-0.138 0.041zM14.44 17.857v0.309c-0.047-0.017-0.087-0.041-0.122-0.072l0 0c-0.025-0.024-0.041-0.058-0.041-0.095 0-0.002 0-0.003 0-0.005v0c0-0.078 0.054-0.125 0.162-0.138zM16.998 13.083v0.879h-4.983v-0.879h4.983zM16.559 8.453l1.553 1.020-0.937 2.73h-5.335l-0.937-2.73 1.553-1.020 1.026 0.674 1.026-0.674 1.026 0.674 1.025-0.674z"></path>
</symbol>
<symbol id="illustration-easy-to-implement" viewBox="0 0 44 32">
<path fill="#000" style="fill: var(--color6, #000)" d="M4.541 3.964h30.919c0.318 0 0.577 0.258 0.577 0.577v19.315c0 0.318-0.258 0.577-0.577 0.577h-30.919c-0.318 0-0.577-0.258-0.577-0.577v-19.315c0-0.318 0.258-0.577 0.577-0.577z"></path>
<path fill="#1b262f" style="fill: var(--color7, #1b262f)" d="M4.541 3.964h30.919c0.318 0 0.577 0.258 0.577 0.577v19.315c0 0.318-0.258 0.577-0.577 0.577h-30.919c-0.318 0-0.577-0.258-0.577-0.577v-19.315c0-0.318 0.258-0.577 0.577-0.577z"></path>
<path fill="#2e3f4d" style="fill: var(--color8, #2e3f4d)" d="M4.541 3.964h30.919c0.318 0 0.577 0.258 0.577 0.577v0 2.306h-32.072v-2.306c0-0.318 0.258-0.577 0.577-0.577v0z"></path>
<path fill="#ba4270" style="fill: var(--color4, #ba4270)" d="M6.27 5.405c0 0.318-0.258 0.577-0.577 0.577s-0.577-0.258-0.577-0.577c0-0.318 0.258-0.577 0.577-0.577s0.577 0.258 0.577 0.577z"></path>
<path fill="#527695" style="fill: var(--color9, #527695)" d="M7.885 5.405c0 0.318-0.258 0.577-0.577 0.577s-0.577-0.258-0.577-0.577c0-0.318 0.258-0.577 0.577-0.577s0.577 0.258 0.577 0.577z"></path>
<path fill="#36536b" style="fill: var(--color1, #36536b)" d="M9.499 5.405c0 0.318-0.258 0.577-0.577 0.577s-0.577-0.258-0.577-0.577c0-0.318 0.258-0.577 0.577-0.577s0.577 0.258 0.577 0.577z"></path>
</symbol>
<symbol id="illustration-phone-mockup" viewBox="0 0 20 32">
<path fill="#000" style="fill: var(--color6, #000)" d="M4.304 2.694h9.272c0.889 0 1.61 0.69 1.61 1.542v21.104c0 0.851-0.721 1.542-1.61 1.542h-9.272c-0.889 0-1.61-0.69-1.61-1.542v-21.104c0-0.851 0.721-1.542 1.61-1.542z"></path>
<path fill="#213648" style="fill: var(--color10, #213648)" d="M4.304 2.694h9.272c0.889 0 1.61 0.69 1.61 1.542v21.104c0 0.851-0.721 1.542-1.61 1.542h-9.272c-0.889 0-1.61-0.69-1.61-1.542v-21.104c0-0.851 0.721-1.542 1.61-1.542z"></path>
<path fill="#000" style="fill: var(--color6, #000)" opacity="0.3874" d="M13.612 2.667h-9.349c-0.437 0.027-0.839 0.226-1.208 0.598 0.237-0.207 0.66-0.484 1.219-0.484h9.327c0.559 0 0.982 0.277 1.219 0.484-0.369-0.372-0.771-0.571-1.208-0.598z"></path>
<path fill="#000" style="fill: var(--color6, #000)" opacity="0.75" d="M14.933 25.099v-20.736c0-0.556-0.204-0.762-0.326-0.894s-0.127-0.199 0.048-0.1c0.175 0.1 0.526 0.39 0.526 0.994v20.736c0 0.604-0.351 0.894-0.526 0.994s-0.17 0.032-0.048-0.1 0.326-0.338 0.326-0.894z"></path>
<path fill="#000" style="fill: var(--color6, #000)" opacity="0.75" d="M2.942 25.099v-20.736c0-0.556 0.204-0.762 0.326-0.894s0.127-0.199-0.048-0.1c-0.175 0.1-0.526 0.39-0.526 0.994v20.736c0 0.604 0.351 0.894 0.526 0.994s0.17 0.032 0.048-0.1-0.326-0.338-0.326-0.894z"></path>
<path fill="#2e423c" style="fill: var(--color11, #2e423c)" d="M2.667 7.591h0.047c0.054 0 0.097 0.043 0.097 0.097v0 2.926c0 0.054-0.043 0.097-0.097 0.097v0h-0.047c-0.054 0-0.097-0.043-0.097-0.097v0-2.926c0-0.054 0.043-0.097 0.097-0.097v0zM15.153 10.135h0.047c0.054 0 0.097 0.043 0.097 0.097v0 2.082c0 0.054-0.043 0.097-0.097 0.097v0h-0.047c-0.054 0-0.097-0.043-0.097-0.097v0-2.082c0-0.054 0.043-0.097 0.097-0.097v0z"></path>
<path fill="#fff" style="fill: var(--color3, #fff)" d="M7.839 3.27h-3.608c-0.538 0-0.931 0.367-0.931 0.846v20.48c0 0.625 0.606 1.178 1.292 1.178h8.695c0.66 0 1.292-0.558 1.292-1.178v-20.424c0-0.574-0.426-0.898-0.931-0.901h-3.665c-0.014 0.002-0.266 0.106-0.372 0.367s-0.32 0.469-0.555 0.469h-0.272c-0.111 0-0.405-0.108-0.553-0.469s-0.378-0.364-0.392-0.367z"></path>
<path fill="#000" style="fill: var(--color6, #000)" d="M3.297 3.27h11.297v22.545h-11.297z"></path>
<path fill="#000" style="fill: var(--color6, #000)" d="M3.879 10.764h10.085c0.134 0 0.242 0.109 0.242 0.242v3.733c0 0.134-0.109 0.242-0.242 0.242h-10.085c-0.134 0-0.242-0.109-0.242-0.242v-3.733c0-0.134 0.109-0.242 0.242-0.242z"></path>
<path fill="#fbfcfe" style="fill: var(--color2, #fbfcfe)" d="M3.879 10.764h10.085c0.134 0 0.242 0.109 0.242 0.242v3.733c0 0.134-0.109 0.242-0.242 0.242h-10.085c-0.134 0-0.242-0.109-0.242-0.242v-3.733c0-0.134 0.109-0.242 0.242-0.242z"></path>
</symbol>
<symbol id="illustration-simple-ui" viewBox="0 0 35 32">
<path fill="#000" style="fill: var(--color6, #000)" d="M18.995 2.694h9.272c0.889 0 1.61 0.69 1.61 1.542v21.104c0 0.851-0.721 1.542-1.61 1.542h-9.272c-0.889 0-1.61-0.69-1.61-1.542v-21.104c0-0.851 0.721-1.542 1.61-1.542z"></path>
<path fill="#213648" style="fill: var(--color10, #213648)" d="M18.995 2.694h9.272c0.889 0 1.61 0.69 1.61 1.542v21.104c0 0.851-0.721 1.542-1.61 1.542h-9.272c-0.889 0-1.61-0.69-1.61-1.542v-21.104c0-0.851 0.721-1.542 1.61-1.542z"></path>
<path fill="#000" style="fill: var(--color6, #000)" opacity="0.3874" d="M28.303 2.667h-9.349c-0.437 0.027-0.839 0.226-1.208 0.598 0.237-0.207 0.66-0.484 1.219-0.484h9.327c0.559 0 0.982 0.277 1.219 0.484-0.369-0.372-0.771-0.571-1.208-0.598z"></path>
<path fill="#000" style="fill: var(--color6, #000)" opacity="0.75" d="M29.624 25.099v-20.736c0-0.556-0.204-0.762-0.326-0.894s-0.127-0.199 0.048-0.1c0.175 0.1 0.526 0.39 0.526 0.994v20.736c0 0.604-0.351 0.894-0.526 0.994s-0.17 0.032-0.048-0.1 0.326-0.338 0.326-0.894z"></path>
<path fill="#000" style="fill: var(--color6, #000)" opacity="0.75" d="M17.633 25.099v-20.736c0-0.556 0.204-0.762 0.326-0.894s0.127-0.199-0.048-0.1c-0.175 0.1-0.526 0.39-0.526 0.994v20.736c0 0.604 0.351 0.894 0.526 0.994s0.17 0.032 0.048-0.1-0.326-0.338-0.326-0.894z"></path>
<path fill="#2e423c" style="fill: var(--color11, #2e423c)" d="M17.358 7.591h0.047c0.054 0 0.097 0.043 0.097 0.097v0 2.926c0 0.054-0.043 0.097-0.097 0.097v0h-0.047c-0.054 0-0.097-0.043-0.097-0.097v0-2.926c0-0.054 0.043-0.097 0.097-0.097v0zM29.844 10.135h0.047c0.054 0 0.097 0.043 0.097 0.097v0 2.082c0 0.054-0.043 0.097-0.097 0.097v0h-0.047c-0.054 0-0.097-0.043-0.097-0.097v0-2.082c0-0.054 0.043-0.097 0.097-0.097v0z"></path>
<path fill="#36536b" style="fill: var(--color1, #36536b)" d="M22.53 3.27h-3.608c-0.538 0-0.931 0.367-0.931 0.846v20.48c0 0.625 0.606 1.178 1.292 1.178h8.695c0.66 0 1.292-0.558 1.292-1.178v-20.424c0-0.574-0.426-0.898-0.931-0.901h-3.665c-0.014 0.002-0.266 0.106-0.372 0.367s-0.32 0.469-0.555 0.469h-0.272c-0.111 0-0.405-0.108-0.553-0.469s-0.378-0.364-0.392-0.367z"></path>
<path fill="#000" style="fill: var(--color6, #000)" d="M19.588 9.552h8.049c0.134 0 0.242 0.109 0.242 0.242v8.776c0 0.134-0.109 0.242-0.242 0.242h-8.049c-0.134 0-0.242-0.109-0.242-0.242v-8.776c0-0.134 0.109-0.242 0.242-0.242z"></path>
<path fill="#fbfcfe" style="fill: var(--color2, #fbfcfe)" d="M19.588 9.552h8.049c0.134 0 0.242 0.109 0.242 0.242v8.776c0 0.134-0.109 0.242-0.242 0.242h-8.049c-0.134 0-0.242-0.109-0.242-0.242v-8.776c0-0.134 0.109-0.242 0.242-0.242z"></path>
<path fill="#ba4270" style="fill: var(--color4, #ba4270)" opacity="0.25" d="M24.921 12.655c0 0.75-0.608 1.358-1.358 1.358s-1.358-0.608-1.358-1.358c0-0.75 0.608-1.358 1.358-1.358s1.358 0.608 1.358 1.358z"></path>
<path fill="#ba4270" style="fill: var(--color4, #ba4270)" d="M21.188 18.085h4.897c0.402 0 0.727 0.326 0.727 0.727s-0.326 0.727-0.727 0.727h-4.897c-0.402 0-0.727-0.326-0.727-0.727s0.326-0.727 0.727-0.727z"></path>
<path fill="#000" style="fill: var(--color6, #000)" d="M4.304 2.694h9.272c0.889 0 1.61 0.69 1.61 1.542v21.104c0 0.851-0.721 1.542-1.61 1.542h-9.272c-0.889 0-1.61-0.69-1.61-1.542v-21.104c0-0.851 0.721-1.542 1.61-1.542z"></path>
<path fill="#213648" style="fill: var(--color10, #213648)" d="M4.304 2.694h9.272c0.889 0 1.61 0.69 1.61 1.542v21.104c0 0.851-0.721 1.542-1.61 1.542h-9.272c-0.889 0-1.61-0.69-1.61-1.542v-21.104c0-0.851 0.721-1.542 1.61-1.542z"></path>
<path fill="#000" style="fill: var(--color6, #000)" opacity="0.3874" d="M13.612 2.667h-9.349c-0.437 0.027-0.839 0.226-1.208 0.598 0.237-0.207 0.66-0.484 1.219-0.484h9.327c0.559 0 0.982 0.277 1.219 0.484-0.369-0.372-0.771-0.571-1.208-0.598z"></path>
<path fill="#000" style="fill: var(--color6, #000)" opacity="0.75" d="M14.933 25.099v-20.736c0-0.556-0.204-0.762-0.326-0.894s-0.127-0.199 0.048-0.1c0.175 0.1 0.526 0.39 0.526 0.994v20.736c0 0.604-0.351 0.894-0.526 0.994s-0.17 0.032-0.048-0.1 0.326-0.338 0.326-0.894z"></path>
<path fill="#000" style="fill: var(--color6, #000)" opacity="0.75" d="M2.942 25.099v-20.736c0-0.556 0.204-0.762 0.326-0.894s0.127-0.199-0.048-0.1c-0.175 0.1-0.526 0.39-0.526 0.994v20.736c0 0.604 0.351 0.894 0.526 0.994s0.17 0.032 0.048-0.1-0.326-0.338-0.326-0.894z"></path>
<path fill="#2e423c" style="fill: var(--color11, #2e423c)" d="M2.667 7.591h0.047c0.054 0 0.097 0.043 0.097 0.097v0 2.926c0 0.054-0.043 0.097-0.097 0.097v0h-0.047c-0.054 0-0.097-0.043-0.097-0.097v0-2.926c0-0.054 0.043-0.097 0.097-0.097v0zM15.153 10.135h0.047c0.054 0 0.097 0.043 0.097 0.097v0 2.082c0 0.054-0.043 0.097-0.097 0.097v0h-0.047c-0.054 0-0.097-0.043-0.097-0.097v0-2.082c0-0.054 0.043-0.097 0.097-0.097v0z"></path>
<path fill="#edf3f8" style="fill: var(--color5, #edf3f8)" d="M7.839 3.27h-3.608c-0.538 0-0.931 0.367-0.931 0.846v20.48c0 0.625 0.606 1.178 1.292 1.178h8.695c0.66 0 1.292-0.558 1.292-1.178v-20.424c0-0.574-0.426-0.898-0.931-0.901h-3.665c-0.014 0.002-0.266 0.106-0.372 0.367s-0.32 0.469-0.555 0.469h-0.272c-0.111 0-0.405-0.108-0.553-0.469s-0.378-0.364-0.392-0.367z"></path>
<path fill="#000" style="fill: var(--color6, #000)" d="M4.267 11.055h9.406c0.134 0 0.242 0.109 0.242 0.242v1.455c0 0.134-0.109 0.242-0.242 0.242h-9.406c-0.134 0-0.242-0.109-0.242-0.242v-1.455c0-0.134 0.109-0.242 0.242-0.242z"></path>
<path fill="#fbfcfe" style="fill: var(--color2, #fbfcfe)" d="M4.267 11.055h9.406c0.134 0 0.242 0.109 0.242 0.242v1.455c0 0.134-0.109 0.242-0.242 0.242h-9.406c-0.134 0-0.242-0.109-0.242-0.242v-1.455c0-0.134 0.109-0.242 0.242-0.242z"></path>
<path fill="#000" style="fill: var(--color6, #000)" d="M4.267 13.382h9.406c0.134 0 0.242 0.109 0.242 0.242v1.455c0 0.134-0.109 0.242-0.242 0.242h-9.406c-0.134 0-0.242-0.109-0.242-0.242v-1.455c0-0.134 0.109-0.242 0.242-0.242z"></path>
<path fill="#fbfcfe" style="fill: var(--color2, #fbfcfe)" d="M4.267 13.382h9.406c0.134 0 0.242 0.109 0.242 0.242v1.455c0 0.134-0.109 0.242-0.242 0.242h-9.406c-0.134 0-0.242-0.109-0.242-0.242v-1.455c0-0.134 0.109-0.242 0.242-0.242z"></path>
<path fill="#000" style="fill: var(--color6, #000)" d="M4.267 15.709h9.406c0.134 0 0.242 0.109 0.242 0.242v1.455c0 0.134-0.109 0.242-0.242 0.242h-9.406c-0.134 0-0.242-0.109-0.242-0.242v-1.455c0-0.134 0.109-0.242 0.242-0.242z"></path>
<path fill="#fbfcfe" style="fill: var(--color2, #fbfcfe)" d="M4.267 15.709h9.406c0.134 0 0.242 0.109 0.242 0.242v1.455c0 0.134-0.109 0.242-0.242 0.242h-9.406c-0.134 0-0.242-0.109-0.242-0.242v-1.455c0-0.134 0.109-0.242 0.242-0.242z"></path>
<path fill="#000" style="fill: var(--color6, #000)" d="M4.267 18.036h9.406c0.134 0 0.242 0.109 0.242 0.242v1.455c0 0.134-0.109 0.242-0.242 0.242h-9.406c-0.134 0-0.242-0.109-0.242-0.242v-1.455c0-0.134 0.109-0.242 0.242-0.242z"></path>
<path fill="#fbfcfe" style="fill: var(--color2, #fbfcfe)" d="M4.267 18.036h9.406c0.134 0 0.242 0.109 0.242 0.242v1.455c0 0.134-0.109 0.242-0.242 0.242h-9.406c-0.134 0-0.242-0.109-0.242-0.242v-1.455c0-0.134 0.109-0.242 0.242-0.242z"></path>
<path fill="#000" style="fill: var(--color6, #000)" d="M4.267 20.364h9.406c0.134 0 0.242 0.109 0.242 0.242v1.455c0 0.134-0.109 0.242-0.242 0.242h-9.406c-0.134 0-0.242-0.109-0.242-0.242v-1.455c0-0.134 0.109-0.242 0.242-0.242z"></path>
<path fill="#fbfcfe" style="fill: var(--color2, #fbfcfe)" d="M4.267 20.364h9.406c0.134 0 0.242 0.109 0.242 0.242v1.455c0 0.134-0.109 0.242-0.242 0.242h-9.406c-0.134 0-0.242-0.109-0.242-0.242v-1.455c0-0.134 0.109-0.242 0.242-0.242z"></path>
<path fill="#000" style="fill: var(--color6, #000)" d="M4.267 22.691h9.406c0.134 0 0.242 0.109 0.242 0.242v1.455c0 0.134-0.109 0.242-0.242 0.242h-9.406c-0.134 0-0.242-0.109-0.242-0.242v-1.455c0-0.134 0.109-0.242 0.242-0.242z"></path>
<path fill="#fbfcfe" style="fill: var(--color2, #fbfcfe)" d="M4.267 22.691h9.406c0.134 0 0.242 0.109 0.242 0.242v1.455c0 0.134-0.109 0.242-0.242 0.242h-9.406c-0.134 0-0.242-0.109-0.242-0.242v-1.455c0-0.134 0.109-0.242 0.242-0.242z"></path>
<path fill="#000" style="fill: var(--color6, #000)" d="M4.267 25.018h9.406c0.134 0 0.242 0.109 0.242 0.242v1.455c0 0.134-0.109 0.242-0.242 0.242h-9.406c-0.134 0-0.242-0.109-0.242-0.242v-1.455c0-0.134 0.109-0.242 0.242-0.242z"></path>
<path fill="#fbfcfe" style="fill: var(--color2, #fbfcfe)" d="M4.267 25.018h9.406c0.134 0 0.242 0.109 0.242 0.242v1.455c0 0.134-0.109 0.242-0.242 0.242h-9.406c-0.134 0-0.242-0.109-0.242-0.242v-1.455c0-0.134 0.109-0.242 0.242-0.242z"></path>
<path fill="#36536b" style="fill: var(--color1, #36536b)" d="M3.301 3.27h11.297v5.527h-11.297z"></path>
<path fill="#000" style="fill: var(--color6, #000)" d="M4.267 7.176h9.406c0.134 0 0.242 0.109 0.242 0.242v2.23c0 0.134-0.109 0.242-0.242 0.242h-9.406c-0.134 0-0.242-0.109-0.242-0.242v-2.23c0-0.134 0.109-0.242 0.242-0.242z"></path>
<path fill="#fbfcfe" style="fill: var(--color2, #fbfcfe)" d="M4.267 7.176h9.406c0.134 0 0.242 0.109 0.242 0.242v2.23c0 0.134-0.109 0.242-0.242 0.242h-9.406c-0.134 0-0.242-0.109-0.242-0.242v-2.23c0-0.134 0.109-0.242 0.242-0.242z"></path>
<path fill="#fff" style="fill: var(--color3, #fff)" d="M8.433 5.936v-0.24h0.002c0.017 0.025 0.039 0.044 0.065 0.056 0.025 0.012 0.054 0.019 0.085 0.019 0.001 0 0.001 0 0.002 0h-0c0.037 0 0.070-0.007 0.098-0.022s0.051-0.034 0.069-0.057l0-0c0.019-0.024 0.033-0.052 0.042-0.083s0.014-0.064 0.014-0.098c0-0.036-0.005-0.070-0.014-0.103s-0.023-0.062-0.043-0.087l0 0.001c-0.019-0.025-0.043-0.045-0.070-0.059l-0.001-0.001c-0.029-0.015-0.063-0.023-0.103-0.023-0.031 0-0.060 0.006-0.086 0.019s-0.048 0.032-0.065 0.060h-0.002v-0.065h-0.132v0.684h0.139zM8.549 5.668c-0.022 0-0.041-0.005-0.057-0.014s-0.028-0.021-0.037-0.035l-0-0c-0.009-0.015-0.017-0.032-0.020-0.050l-0-0.001c-0.004-0.018-0.006-0.039-0.006-0.060 0-0 0-0 0-0v0c0-0.021 0.002-0.041 0.006-0.061s0.011-0.037 0.020-0.052c0.010-0.015 0.022-0.027 0.037-0.037l0.001-0c0.015-0.009 0.034-0.014 0.057-0.014s0.041 0.005 0.056 0.014c0.015 0.010 0.028 0.022 0.038 0.037s0.017 0.033 0.021 0.052c0.004 0.020 0.006 0.040 0.006 0.060s-0.002 0.040-0.006 0.060c-0.004 0.020-0.011 0.037-0.020 0.051s-0.022 0.027-0.037 0.035l-0.001 0c-0.015 0.009-0.034 0.014-0.057 0.014zM9.036 5.771c0 0 0 0 0 0 0.033 0 0.064-0.005 0.094-0.014l-0.002 0.001c0.031-0.010 0.057-0.026 0.078-0.048l0-0c0.001 0.018 0.005 0.035 0.010 0.050l-0-0.001h0.141c-0.007-0.010-0.011-0.026-0.014-0.047s-0.004-0.043-0.004-0.066v-0.263c0-0.031-0.007-0.055-0.021-0.074s-0.032-0.033-0.052-0.043l-0.001-0c-0.021-0.010-0.045-0.018-0.070-0.021l-0.001-0c-0.023-0.003-0.050-0.005-0.077-0.005h-0c-0.030 0-0.059 0.003-0.087 0.009l0.003-0c-0.028 0.005-0.053 0.015-0.076 0.029l0.001-0.001c-0.022 0.013-0.041 0.031-0.054 0.051l-0 0.001c-0.014 0.022-0.023 0.049-0.025 0.081h0.139c0.003-0.027 0.012-0.047 0.027-0.059s0.037-0.018 0.065-0.018c0.012 0 0.024 0.001 0.035 0.002s0.020 0.005 0.028 0.010c0.008 0.005 0.015 0.012 0.020 0.021s0.007 0.021 0.007 0.036c0.001 0.014-0.004 0.025-0.013 0.033s-0.022 0.013-0.037 0.017c-0.016 0.004-0.034 0.007-0.054 0.009s-0.041 0.005-0.062 0.008c-0.021 0.003-0.042 0.008-0.062 0.013s-0.039 0.014-0.055 0.025l0.001-0c-0.016 0.011-0.029 0.026-0.039 0.045s-0.015 0.042-0.015 0.071c0 0.026 0.004 0.049 0.013 0.068s0.021 0.035 0.037 0.047c0.016 0.012 0.034 0.022 0.055 0.027s0.043 0.009 0.068 0.009zM9.087 5.679c-0.011 0-0.022-0.001-0.032-0.003s-0.020-0.005-0.028-0.010l0 0c-0.008-0.005-0.014-0.012-0.018-0.020l-0-0c-0.004-0.008-0.007-0.019-0.007-0.029 0-0.001 0-0.002 0-0.002v0c0-0.013 0.002-0.024 0.007-0.032s0.011-0.016 0.018-0.021c0.008-0.006 0.016-0.010 0.026-0.013s0.020-0.006 0.031-0.008c0.011-0.002 0.022-0.004 0.033-0.005s0.022-0.003 0.032-0.005c0.010-0.002 0.020-0.004 0.028-0.007s0.016-0.007 0.022-0.012v0.052c0 0.008-0.001 0.018-0.002 0.031s-0.006 0.026-0.013 0.039c-0.008 0.014-0.019 0.025-0.033 0.033l-0 0c-0.015 0.009-0.036 0.014-0.064 0.014zM9.515 5.936c0.048 0 0.085-0.009 0.112-0.026s0.048-0.047 0.063-0.088l0.212-0.569h-0.144l-0.111 0.347h-0.002l-0.115-0.347h-0.148l0.177 0.475c0.004 0.010 0.006 0.020 0.006 0.031 0 0.015-0.004 0.029-0.013 0.041s-0.022 0.020-0.041 0.022c-0.004 0-0.009 0-0.014 0-0.010 0-0.019-0-0.029-0.001l0.001 0-0.040-0.004v0.115c0.014 0.001 0.029 0.002 0.043 0.003s0.028 0.001 0.043 0.001zM10.088 5.77c0.024 0 0.046-0.003 0.067-0.009s0.038-0.014 0.054-0.024c0.016-0.010 0.030-0.022 0.041-0.036s0.020-0.028 0.025-0.043h0.002v0.026c0 0.010 0.001 0.020 0.002 0.029s0.005 0.016 0.009 0.023c0.005 0.007 0.012 0.012 0.020 0.016l0 0c0.009 0.004 0.021 0.006 0.036 0.006 0.010 0 0.021-0.001 0.030-0.004v-0.031c-0.012 0.002-0.021 0.003-0.027 0.003-0.008 0-0.015-0.002-0.020-0.005s-0.008-0.008-0.010-0.014l-0-0c-0.002-0.006-0.003-0.013-0.003-0.019v-0c-0-0.006-0.001-0.014-0.001-0.021 0-0 0-0 0-0v0-0.293c0-0.039-0.014-0.070-0.042-0.094s-0.072-0.036-0.133-0.036c-0.061 0-0.108 0.014-0.141 0.042s-0.051 0.069-0.053 0.125h0.037c0.003-0.045 0.018-0.079 0.046-0.101s0.064-0.033 0.109-0.033c0.025 0 0.047 0.003 0.065 0.008 0.017 0.005 0.031 0.012 0.043 0.022l-0-0c0.011 0.009 0.019 0.020 0.024 0.031s0.008 0.024 0.008 0.038c0 0.018-0.001 0.032-0.003 0.044s-0.007 0.021-0.015 0.029c-0.008 0.008-0.019 0.013-0.035 0.018s-0.036 0.007-0.063 0.009l-0.058 0.005c-0.020 0.002-0.041 0.005-0.063 0.010s-0.043 0.013-0.061 0.024l0.001-0c-0.018 0.011-0.033 0.025-0.045 0.044s-0.018 0.043-0.018 0.072c0 0.048 0.015 0.084 0.044 0.107s0.071 0.035 0.124 0.035zM10.089 5.738c-0.041 0-0.073-0.009-0.097-0.027s-0.035-0.046-0.035-0.083c0-0.024 0.005-0.043 0.014-0.057s0.021-0.026 0.036-0.035c0.015-0.008 0.031-0.015 0.049-0.018s0.037-0.006 0.055-0.008l0.063-0.006c0.023-0.002 0.044-0.005 0.062-0.009s0.033-0.011 0.042-0.023v0.094c0 0.007-0.002 0.019-0.005 0.038s-0.012 0.038-0.025 0.058c-0.013 0.020-0.032 0.038-0.057 0.053s-0.058 0.023-0.101 0.023zM10.471 5.939v-0.285h0.002c0.015 0.041 0.039 0.071 0.072 0.089s0.070 0.027 0.112 0.027c0.039 0 0.072-0.007 0.1-0.020s0.052-0.031 0.070-0.054l0-0c0.019-0.023 0.033-0.051 0.042-0.083s0.014-0.067 0.014-0.106c0-0.035-0.005-0.069-0.014-0.101s-0.023-0.060-0.042-0.085l0 0.001c-0.019-0.024-0.042-0.044-0.069-0.057l-0.001-0.001c-0.028-0.014-0.062-0.022-0.1-0.022-0.027 0-0.052 0.004-0.073 0.013s-0.039 0.019-0.055 0.032l0-0c-0.015 0.013-0.027 0.027-0.036 0.042s-0.016 0.029-0.020 0.041h-0.002v-0.116h-0.037v0.684h0.037zM10.656 5.738c-0.035 0-0.065-0.006-0.089-0.019s-0.042-0.029-0.056-0.050l-0-0.001c-0.014-0.021-0.024-0.046-0.030-0.072l-0-0.001c-0.006-0.026-0.009-0.055-0.009-0.085 0-0 0-0.001 0-0.001v0c0-0.030 0.003-0.059 0.010-0.087s0.017-0.053 0.032-0.075l-0.001 0.001c0.015-0.022 0.034-0.039 0.056-0.051l0.001-0c0.024-0.013 0.052-0.020 0.085-0.020s0.063 0.007 0.087 0.020 0.043 0.031 0.058 0.053c0.015 0.022 0.026 0.047 0.033 0.074 0.007 0.025 0.011 0.054 0.011 0.085 0 0 0 0 0 0v-0c0 0.031-0.004 0.061-0.011 0.089s-0.019 0.052-0.035 0.074l0-0.001c-0.015 0.021-0.035 0.038-0.059 0.050s-0.052 0.019-0.085 0.019zM11.008 5.16v-0.101h-0.037v0.101h0.037zM11.008 5.759v-0.504h-0.037v0.504h0.037z"></path>
<path fill="#fff" style="fill: var(--color3, #fff)" d="M7.536 5.115c-0.036 0.036-0.094 0.036-0.13 0s-0.036-0.094 0-0.13c0.036-0.036 0.094-0.036 0.13 0s0.036 0.094 0 0.13z"></path>
<path fill="#fff" style="fill: var(--color3, #fff)" d="M7.753 5.332c-0.036 0.036-0.094 0.036-0.13 0s-0.036-0.094 0-0.13c0.036-0.036 0.094-0.036 0.13 0s0.036 0.094 0 0.13z"></path>
<path fill="#fff" style="fill: var(--color3, #fff)" d="M7.969 5.548c-0.036 0.036-0.094 0.036-0.13 0s-0.036-0.094 0-0.13c0.036-0.036 0.094-0.036 0.13 0s0.036 0.094 0 0.13z"></path>
<path fill="#fff" style="fill: var(--color3, #fff)" d="M7.319 5.332c-0.036 0.036-0.094 0.036-0.13 0s-0.036-0.094 0-0.13c0.036-0.036 0.094-0.036 0.13 0s0.036 0.094 0 0.13z"></path>
<path fill="#fff" style="fill: var(--color3, #fff)" opacity="0.5" d="M7.536 5.548c-0.036 0.036-0.094 0.036-0.13 0s-0.036-0.094 0-0.13c0.036-0.036 0.094-0.036 0.13 0s0.036 0.094 0 0.13z"></path>
<path fill="#fff" style="fill: var(--color3, #fff)" opacity="0.5" d="M7.753 5.765c-0.036 0.036-0.094 0.036-0.13 0s-0.036-0.094 0-0.13c0.036-0.036 0.094-0.036 0.13 0s0.036 0.094 0 0.13z"></path>
<path fill="#fff" style="fill: var(--color3, #fff)" d="M7.103 5.548c-0.036 0.036-0.094 0.036-0.13 0s-0.036-0.094 0-0.13c0.036-0.036 0.094-0.036 0.13 0s0.036 0.094 0 0.13z"></path>
<path fill="#fff" style="fill: var(--color3, #fff)" opacity="0.5" d="M7.319 5.765c-0.036 0.036-0.094 0.036-0.13 0s-0.036-0.094 0-0.13c0.036-0.036 0.094-0.036 0.13 0s0.036 0.094 0 0.13z"></path>
<path fill="#fff" style="fill: var(--color3, #fff)" opacity="0.25" d="M7.536 5.981c-0.036 0.036-0.094 0.036-0.13 0s-0.036-0.094 0-0.13c0.036-0.036 0.094-0.036 0.13 0s0.036 0.094 0 0.13z"></path>
</symbol>
<symbol id="linkedin" viewBox="0 0 32 32">
<path fill="#fff" style="fill: var(--color3, #fff)" d="M28.8 0h-25.6c-1.76 0-3.2 1.44-3.2 3.2v25.6c0 1.76 1.44 3.2 3.2 3.2h25.6c1.76 0 3.2-1.44 3.2-3.2v-25.6c0-1.76-1.44-3.2-3.2-3.2zM9.6 27.2h-4.8v-14.4h4.8v14.4zM7.2 10.080c-1.6 0-2.88-1.28-2.88-2.88s1.28-2.88 2.88-2.88c1.6 0 2.88 1.28 2.88 2.88s-1.28 2.88-2.88 2.88zM27.2 27.2h-4.8v-8.48c0-1.28-1.12-2.4-2.4-2.4s-2.4 1.12-2.4 2.4v8.48h-4.8v-14.4h4.8v1.92c0.8-1.28 2.56-2.24 4-2.24 3.040 0 5.6 2.56 5.6 5.6v9.12z"></path>
</symbol>
<symbol id="logo" viewBox="0 0 114 32">
<path fill="#36536b" style="fill: var(--color1, inherit)" d="M42.563 28.576v-6.602h0.054c0.451 0.664 1.056 1.191 1.765 1.538l0.027 0.012c0.728 0.35 1.523 0.525 2.385 0.525 1.024 0 1.917-0.198 2.681-0.593s1.402-0.93 1.904-1.577l0.010-0.013c0.5-0.65 0.893-1.414 1.133-2.242l0.012-0.048c0.239-0.797 0.377-1.713 0.377-2.661 0-0.012-0-0.023-0-0.035v0.002c0-0.988-0.126-1.936-0.377-2.843s-0.637-1.702-1.159-2.385c-0.525-0.681-1.182-1.235-1.935-1.628l-0.032-0.015c-0.791-0.413-1.734-0.62-2.829-0.62-0.862 0-1.653 0.171-2.371 0.512s-1.311 0.889-1.779 1.644h-0.054v-1.779h-3.638v18.809h3.827zM45.77 21.192c-0.611 0-1.132-0.126-1.563-0.377-0.424-0.246-0.772-0.577-1.030-0.972l-0.007-0.012c-0.259-0.406-0.455-0.88-0.561-1.387l-0.005-0.028c-0.111-0.492-0.175-1.057-0.175-1.637 0-0.002 0-0.005 0-0.007v0c0-0.575 0.054-1.132 0.162-1.671 0.103-0.539 0.295-1.018 0.563-1.446l-0.010 0.018c0.261-0.413 0.602-0.749 1.024-1.011s0.947-0.391 1.576-0.391c0.611 0 1.128 0.131 1.549 0.391s0.768 0.602 1.037 1.024 0.463 0.903 0.579 1.442c0.117 0.539 0.175 1.086 0.175 1.644s-0.054 1.105-0.162 1.644-0.292 1.011-0.552 1.415c-0.261 0.404-0.602 0.733-1.024 0.984s-0.947 0.377-1.576 0.377zM59.144 24.049c0.862 0 1.707-0.126 2.533-0.377 0.851-0.262 1.577-0.718 2.154-1.319l0.002-0.002c0.036 0.494 0.132 0.952 0.281 1.386l-0.011-0.039h3.88c-0.179-0.287-0.306-0.718-0.377-1.293-0.069-0.531-0.108-1.145-0.108-1.769 0-0.013 0-0.026 0-0.039v0.002-7.249c0-0.845-0.189-1.523-0.566-2.035-0.379-0.509-0.867-0.916-1.432-1.189l-0.023-0.010c-0.572-0.279-1.235-0.483-1.934-0.576l-0.033-0.004c-0.639-0.094-1.377-0.147-2.128-0.148h-0.001c-0.772 0-1.541 0.076-2.304 0.229-0.776 0.151-1.467 0.418-2.092 0.785l0.031-0.017c-0.612 0.362-1.117 0.842-1.499 1.412l-0.010 0.017c-0.396 0.593-0.62 1.339-0.674 2.237h3.827c0.072-0.755 0.323-1.293 0.755-1.617s1.024-0.485 1.779-0.485c0.341 0 0.66 0.023 0.957 0.067s0.557 0.135 0.781 0.269 0.404 0.323 0.539 0.566c0.135 0.243 0.202 0.57 0.202 0.984 0.018 0.396-0.099 0.696-0.35 0.903s-0.593 0.364-1.024 0.472c-0.431 0.108-0.925 0.189-1.482 0.243s-1.123 0.126-1.698 0.216c-0.575 0.090-1.145 0.211-1.711 0.364-0.574 0.152-1.077 0.388-1.525 0.698l0.016-0.011c-0.44 0.306-0.8 0.714-1.078 1.226s-0.418 1.163-0.418 1.954c0 0.718 0.121 1.339 0.364 1.859 0.239 0.517 0.582 0.95 1.004 1.288l0.007 0.005c0.431 0.341 0.935 0.593 1.509 0.755 0.542 0.154 1.164 0.243 1.806 0.243 0.019 0 0.037-0 0.056-0l-0.003 0zM60.573 21.516c-0.306 0-0.602-0.027-0.889-0.081-0.284-0.050-0.538-0.149-0.764-0.288l0.009 0.005c-0.217-0.137-0.39-0.324-0.508-0.545l-0.004-0.008c-0.126-0.233-0.189-0.521-0.189-0.862 0-0.36 0.063-0.656 0.189-0.889s0.292-0.427 0.499-0.579c0.208-0.152 0.45-0.276 0.71-0.359l0.018-0.005c0.278-0.090 0.562-0.162 0.849-0.216 0.306-0.054 0.611-0.099 0.916-0.135s0.598-0.081 0.876-0.135c0.278-0.054 0.539-0.121 0.781-0.202s0.445-0.194 0.606-0.337v1.428c0 0.216-0.023 0.503-0.067 0.862-0.055 0.399-0.183 0.758-0.371 1.078l0.007-0.014c-0.198 0.35-0.503 0.651-0.916 0.903s-0.997 0.377-1.752 0.377zM72.33 28.576c1.311 0 2.335-0.243 3.072-0.728s1.311-1.293 1.725-2.425l5.821-15.656h-3.961l-3.045 9.539h-0.054l-3.153-9.539h-4.069l4.877 13.069c0.108 0.269 0.162 0.557 0.162 0.862 0 0.413-0.121 0.791-0.364 1.132s-0.616 0.539-1.118 0.593c-0.377 0.018-0.755 0.008-1.132-0.027s-0.746-0.072-1.105-0.108v3.153c0.395 0.036 0.786 0.067 1.172 0.094s0.776 0.040 1.172 0.040zM88.076 24.022c0.664 0 1.275-0.081 1.832-0.243 0.569-0.163 1.066-0.393 1.517-0.687l-0.021 0.013c0.44-0.287 0.813-0.615 1.118-0.984s0.539-0.759 0.701-1.172h0.054v0.728c0 0.287 0.022 0.552 0.067 0.795s0.13 0.454 0.256 0.633c0.125 0.179 0.31 0.323 0.552 0.431s0.57 0.162 0.984 0.162c0.286 0 0.566-0.036 0.835-0.108v-0.862c-0.222 0.044-0.482 0.073-0.747 0.081l-0.007 0c-0.234 0-0.413-0.050-0.539-0.148s-0.218-0.232-0.268-0.385l-0.002-0.006c-0.053-0.16-0.087-0.344-0.094-0.535l-0-0.003c-0.009-0.198-0.013-0.396-0.013-0.593v-8.057c0-1.060-0.382-1.917-1.145-2.573s-1.981-0.984-3.651-0.984-2.96 0.381-3.867 1.145c-0.908 0.764-1.398 1.909-1.469 3.436h1.024c0.072-1.24 0.488-2.164 1.253-2.776 0.763-0.611 1.765-0.916 3.005-0.916 0.701 0 1.293 0.072 1.779 0.216s0.88 0.341 1.186 0.593c0.305 0.252 0.53 0.539 0.674 0.862s0.216 0.674 0.216 1.051c0 0.485-0.027 0.889-0.081 1.213-0.046 0.314-0.192 0.588-0.404 0.795l-0 0c-0.216 0.206-0.535 0.368-0.957 0.485s-1.002 0.202-1.738 0.256l-1.59 0.135c-0.557 0.054-1.137 0.143-1.738 0.269s-1.15 0.337-1.644 0.633c-0.502 0.307-0.914 0.714-1.217 1.197l-0.009 0.015c-0.323 0.512-0.485 1.172-0.485 1.981 0 1.33 0.404 2.313 1.213 2.951s1.949 0.957 3.422 0.957zM88.103 23.133c-1.132 0-2.021-0.247-2.668-0.741s-0.97-1.253-0.97-2.277c0-0.647 0.125-1.172 0.377-1.576s0.579-0.723 0.984-0.957c0.392-0.227 0.849-0.401 1.333-0.494l0.028-0.004c0.394-0.084 0.909-0.164 1.43-0.222l0.079-0.007 1.725-0.162c0.647-0.053 1.232-0.139 1.804-0.259l-0.093 0.016c0.512-0.108 0.893-0.314 1.145-0.62v2.587c0 0.179-0.051 0.525-0.148 1.037-0.099 0.512-0.328 1.042-0.687 1.59s-0.881 1.033-1.563 1.455c-0.683 0.422-1.608 0.633-2.776 0.633zM98.621 28.657v-7.842h0.053c0.413 1.132 1.069 1.949 1.967 2.452s1.923 0.755 3.072 0.755c1.061 0 1.981-0.179 2.762-0.539 0.775-0.353 1.424-0.86 1.933-1.486l0.008-0.010c0.512-0.637 0.894-1.397 1.145-2.277 0.253-0.88 0.377-1.85 0.377-2.91 0-0.97-0.125-1.895-0.377-2.776s-0.633-1.653-1.145-2.317c-0.517-0.664-1.165-1.2-1.908-1.575l-0.032-0.015c-0.781-0.396-1.701-0.593-2.762-0.593-0.755 0-1.423 0.117-2.008 0.35-0.573 0.224-1.068 0.52-1.504 0.883l0.009-0.007c-0.413 0.35-0.745 0.733-0.997 1.145s-0.431 0.791-0.539 1.132h-0.054v-3.18h-1.024v18.809h1.024zM103.713 23.133c-0.97 0-1.783-0.175-2.439-0.525-0.639-0.337-1.165-0.811-1.553-1.386l-0.010-0.015c-0.386-0.584-0.66-1.257-0.822-2.021-0.154-0.706-0.243-1.517-0.243-2.348 0-0.013 0-0.026 0-0.039v0.002c0-0.826 0.090-1.621 0.269-2.385 0.177-0.772 0.48-1.453 0.889-2.056l-0.013 0.021c0.408-0.593 0.937-1.074 1.553-1.416l0.023-0.012c0.647-0.36 1.428-0.539 2.344-0.539 0.935 0 1.73 0.184 2.385 0.552 0.649 0.363 1.186 0.853 1.593 1.44l0.010 0.016c0.413 0.602 0.719 1.284 0.916 2.048s0.296 1.541 0.296 2.331c0 0.862-0.103 1.676-0.31 2.439s-0.52 1.432-0.943 2.008c-0.426 0.574-0.967 1.037-1.591 1.362l-0.026 0.012c-0.655 0.341-1.432 0.512-2.331 0.512zM113.395 7.234v-2.776h-1.024v2.776h1.024zM113.395 23.699v-13.851h-1.024v13.851h1.024z"></path>
<path fill="#36536b" style="fill: var(--color1, inherit)" d="M17.906 5.997c-0.987 0.987-2.586 0.987-3.573 0s-0.987-2.586 0-3.573c0.987-0.987 2.586-0.987 3.573 0s0.987 2.586 0 3.573z"></path>
<path fill="#36536b" style="fill: var(--color1, inherit)" d="M23.86 11.951c-0.987 0.987-2.586 0.987-3.573 0s-0.987-2.586 0-3.573c0.987-0.987 2.586-0.987 3.573 0s0.987 2.586 0 3.573z"></path>
<path fill="#36536b" style="fill: var(--color1, inherit)" d="M29.815 17.906c-0.987 0.987-2.586 0.987-3.573 0s-0.987-2.586 0-3.573c0.987-0.987 2.586-0.987 3.573 0s0.987 2.586 0 3.573z"></path>
<path fill="#36536b" style="fill: var(--color1, inherit)" d="M11.951 11.951c-0.987 0.987-2.586 0.987-3.573 0s-0.987-2.586 0-3.573c0.987-0.987 2.586-0.987 3.573 0s0.987 2.586 0 3.573z"></path>
<path fill="#36536b" style="fill: var(--color1, inherit)" opacity="0.5" d="M17.906 17.906c-0.987 0.987-2.586 0.987-3.573 0s-0.987-2.586 0-3.573c0.987-0.987 2.586-0.987 3.573 0s0.987 2.586 0 3.573z"></path>
<path fill="#36536b" style="fill: var(--color1, inherit)" opacity="0.5" d="M23.86 23.86c-0.987 0.987-2.586 0.987-3.573 0s-0.987-2.586 0-3.573c0.987-0.987 2.586-0.987 3.573 0s0.987 2.586 0 3.573z"></path>
<path fill="#36536b" style="fill: var(--color1, inherit)" d="M5.997 17.906c-0.987 0.987-2.586 0.987-3.573 0s-0.987-2.586 0-3.573c0.987-0.987 2.586-0.987 3.573 0s0.987 2.586 0 3.573z"></path>
<path fill="#36536b" style="fill: var(--color1, inherit)" opacity="0.5" d="M11.951 23.86c-0.987 0.987-2.586 0.987-3.573 0s-0.987-2.586 0-3.573c0.987-0.987 2.586-0.987 3.573 0s0.987 2.586 0 3.573z"></path>
<path fill="#36536b" style="fill: var(--color1, inherit)" opacity="0.25" d="M17.906 29.815c-0.987 0.987-2.586 0.987-3.573 0s-0.987-2.586 0-3.573c0.987-0.987 2.586-0.987 3.573 0s0.987 2.586 0 3.573z"></path>
</symbol>
<symbol id="menu" viewBox="0 0 53 32">
<path fill="#36536b" style="fill: var(--color1, #36536b)" d="M0 0h52.706v5.647h-52.706zM0 13.176h52.706v5.647h-52.706zM0 26.353h52.706v5.647h-52.706z"></path>
</symbol>
<symbol id="microsoft"   viewBox="0 0 153 32">
<path  fill="red" style="fill: var(--color1, inherit)" d="M16.436 16.516v15.484h-15.628v-15.484h15.628zM33.106 16.516v15.484h-15.629v-15.484h15.628zM115.221 11.585c0.472 0 1.015 0.056 1.612 0.165 0.601 0.11 1.095 0.246 1.471 0.405l0.052 0.022v2.95l-0.134-0.090c-0.416-0.276-0.897-0.502-1.41-0.653l-0.038-0.010c-0.496-0.157-1.066-0.249-1.657-0.252h-0.001c-0.588 0-1.056 0.131-1.394 0.388-0.333 0.256-0.495 0.572-0.495 0.966 0 0.446 0.131 0.797 0.39 1.046 0.269 0.258 0.923 0.593 1.942 0.996 1.28 0.509 2.197 1.084 2.725 1.713 0.533 0.632 0.802 1.416 0.802 2.331 0 1.268-0.502 2.304-1.491 3.081-0.984 0.772-2.331 1.163-4.005 1.163-0.542 0-1.166-0.072-1.853-0.212-0.689-0.139-1.272-0.318-1.735-0.529l-0.051-0.023v-3.111l0.136 0.097c0.526 0.377 1.134 0.688 1.786 0.903l0.048 0.014c0.66 0.215 1.261 0.323 1.789 0.323 1.425 0 2.116-0.444 2.116-1.355 0-0.32-0.069-0.579-0.203-0.769-0.138-0.193-0.383-0.392-0.729-0.59-0.353-0.201-0.908-0.457-1.655-0.76-0.888-0.377-1.557-0.746-1.99-1.099-0.417-0.334-0.748-0.756-0.97-1.239l-0.009-0.021c-0.211-0.48-0.318-1.046-0.318-1.683 0-1.225 0.498-2.238 1.477-3.010 0.974-0.768 2.25-1.156 3.793-1.156zM142.207 5.161c0.758 0 1.37 0.081 1.819 0.239l0.057 0.021v2.742l-0.121-0.054c-0.418-0.196-0.906-0.313-1.421-0.32l-0.002-0c-0.643 0-1.147 0.204-1.5 0.605-0.355 0.407-0.536 1.015-0.536 1.81v1.708h4.856v-3.066l0.061-0.019 3.186-0.962v4.046h3.275v2.602h-3.274v6.405c0 0.821 0.149 1.408 0.444 1.743 0.29 0.332 0.759 0.501 1.394 0.501 0.167 0 0.385-0.036 0.646-0.108 0.258-0.071 0.48-0.166 0.658-0.283l0.134-0.087v2.626l-0.043 0.026c-0.196 0.109-0.526 0.213-1.013 0.316-0.417 0.094-0.896 0.15-1.388 0.153h-0.002c-2.705 0-4.077-1.454-4.077-4.324v-6.968h-4.855v10.965h-3.273v-10.966h-2.281v-2.601h2.281v-1.879c0-0.942 0.211-1.795 0.627-2.533 0.419-0.736 1.022-1.325 1.748-1.715l0.023-0.011c0.757-0.407 1.625-0.612 2.581-0.612zM127.783 11.585c2.137 0 3.83 0.628 5.034 1.864 1.204 1.237 1.814 2.957 1.814 5.115 0 2.184-0.65 3.957-1.933 5.267-1.283 1.311-3.048 1.975-5.246 1.975-2.109 0-3.813-0.63-5.065-1.876-1.253-1.245-1.888-2.952-1.888-5.078 0-2.236 0.65-4.026 1.933-5.318 1.284-1.293 3.084-1.949 5.351-1.949zM101.562 11.585c2.136 0 3.83 0.628 5.033 1.864s1.815 2.957 1.815 5.115c0 2.184-0.65 3.957-1.933 5.267-1.283 1.311-3.048 1.975-5.246 1.975-2.109 0-3.813-0.63-5.065-1.876-1.253-1.245-1.889-2.952-1.889-5.078 0-2.236 0.651-4.026 1.934-5.318 1.283-1.293 3.084-1.949 5.351-1.949zM80.283 11.585c0.578 0 1.185 0.064 1.806 0.192 0.626 0.127 1.128 0.295 1.497 0.499l0.044 0.025v3.080l-0.136-0.097c-0.981-0.702-2.016-1.056-3.078-1.056-1.243 0-2.264 0.415-3.034 1.235-0.772 0.823-1.163 1.937-1.163 3.311 0 1.367 0.376 2.453 1.117 3.227 0.739 0.772 1.758 1.164 3.027 1.164 0.457 0 0.978-0.1 1.549-0.296 0.604-0.209 1.128-0.484 1.6-0.826l-0.018 0.012 0.136-0.098v2.924l-0.043 0.024c-1.052 0.599-2.364 0.901-3.901 0.901-1.317 0-2.506-0.286-3.535-0.849-1.027-0.566-1.852-1.389-2.404-2.384l-0.016-0.031c-0.575-1.036-0.866-2.213-0.866-3.494 0-1.464 0.3-2.777 0.891-3.899 0.595-1.123 1.482-2.022 2.561-2.616l0.033-0.017c1.125-0.619 2.449-0.933 3.933-0.933zM92.748 11.677c0.54 0 0.965 0.064 1.267 0.19l0.052 0.022v3.218l-0.134-0.097c-0.151-0.106-0.405-0.207-0.755-0.301-0.29-0.084-0.624-0.135-0.969-0.14l-0.003-0c-0.86 0-1.564 0.366-2.091 1.090-0.536 0.733-0.806 1.701-0.806 2.882v6.94h-3.234v-13.567h3.234v2.349h0.034c0.302-0.763 0.697-1.374 1.244-1.82 0.573-0.476 1.317-0.765 2.127-0.765 0.012 0 0.025 0 0.037 0l-0.002-0zM70.637 11.912v13.567h-3.233v-13.567h3.234zM48.279 6.548l5.634 14.061 5.805-14.061h4.568v18.932h-3.3v-14.568h-0.106l-5.857 14.568h-2.34l-5.95-14.569h-0.106v14.569h-3.102v-18.932h4.754zM127.612 14.228c-1.171 0-2.099 0.394-2.759 1.173-0.664 0.783-1.001 1.91-1.001 3.348 0 1.395 0.338 2.492 1.001 3.262 0.661 0.766 1.597 1.155 2.785 1.155 1.195 0 2.11-0.382 2.718-1.133 0.612-0.757 0.923-1.889 0.923-3.362 0-1.455-0.33-2.572-0.981-3.321-0.647-0.743-1.551-1.121-2.686-1.121zM101.39 14.228c-1.171 0-2.099 0.394-2.758 1.173-0.665 0.783-1.001 1.91-1.001 3.348 0 1.395 0.335 2.492 1 3.262 0.661 0.766 1.597 1.155 2.785 1.155 1.195 0 2.11-0.382 2.717-1.133 0.613-0.757 0.923-1.889 0.923-3.362 0-1.455-0.33-2.572-0.981-3.321-0.647-0.743-1.55-1.121-2.685-1.121zM16.436 0v15.484h-15.628v-15.484h15.628zM33.105 0v15.484h-15.628v-15.484h15.628zM69.053 6.133c0.561 0 1.033 0.184 1.406 0.547 0.374 0.364 0.564 0.807 0.564 1.317 0 0.519-0.195 0.959-0.578 1.305-0.382 0.345-0.85 0.519-1.39 0.519-0.542 0-1.007-0.175-1.384-0.519-0.352-0.313-0.572-0.766-0.572-1.272 0-0.012 0-0.023 0-0.035l-0 0.002c0-0.529 0.195-0.975 0.578-1.332 0.381-0.354 0.845-0.533 1.377-0.533z"></path>
</symbol>
<symbol id="nvidia" viewBox="0 0 171 32">
<path fill="#36536b" style="fill: var(--color1, inherit)" d="M49.337 0v32h-30.35v-3.758c0.642 0.071 1.284 0.107 1.962 0.107 7.025 0 19.418-3.579 24.732-8.031-0.785-0.784-4.583-2.582-5.51-3.33-5.6 4.809-11.376 8.886-19.365 8.886-0.607 0-1.231-0.054-1.836-0.124v-2.671c0.731 0.123 1.462 0.194 2.21 0.194 8.577 0 16.815-10.006 16.815-10.006s-7.185-9.386-18.187-9.012l-0.857 0.053v-4.309h30.385zM18.97 4.309l-0.001 2.35-0.017 0.001v0.001l-0.455 0.042c-8.283 0.849-12.492 6.852-12.646 7.074-0.004 0.006 3.33 10.762 13.102 11.973v2.492c-13.319-1.247-18.063-14.958-18.063-14.958s8.382-8.192 18.080-8.976zM111.003 6.191v20.886h-5.974v-20.887h5.974zM123.040 6.191c4.77 0 7.963 0.566 10.153 3.487 1.237 1.628 1.937 4.249 1.937 7.188 0 3.204-0.825 6.142-2.117 7.47-1.813 1.893-3.499 2.742-8.665 2.742h-9.686v-20.887zM86.661 6.191l4.772 16.55 4.987-16.55h6.098l-6.889 20.886h-8.609l-6.817-20.887h6.458zM143.902 6.191v20.886h-5.974v-20.887h5.974zM69.009 6.154c5.12 0.037 10.278 1.247 10.278 9.362v11.542h-5.847v-9.541c0-2.922-0.377-4.532-1.328-5.524-0.735-0.779-1.812-1.151-3.354-1.151l-4.7-0.017v16.233h-6.027v-20.905zM162.663 6.188l8.414 20.852h-6.404l-1.255-3.681h-9.866l-1.328 3.7h-5.883l8.341-20.87h7.983zM18.951 9.545v2.494h-0.017c-3.086-0.374-5.51 2.511-5.51 2.511l0.010 0.033c0.13 0.432 1.566 4.896 5.518 6.235v2.279c-7.382-1.318-9.433-8.993-9.433-8.993l0.086-0.091 0.11-0.11c0.816-0.807 4.155-3.804 9.237-4.357zM123.147 10.721h-2.565v11.877h2.565c3.73 0 6.134-1.664 6.134-5.947s-2.404-5.93-6.134-5.93zM32.913 13.426l-0.023 0.033-0.122 0.161c-0.914 1.201-6.020 7.569-11.462 7.569-0.802 0-1.588-0.123-2.336-0.373v-8.762c3.084 0.374 3.708 1.728 5.546 4.809l4.118-3.455s-3.013-3.936-8.078-3.936c-0.079-0.002-0.172-0.003-0.266-0.003-0.472 0-0.937 0.027-1.395 0.080l0.056-0.005v-2.884h0.018l-0.001-0.002 0.411-0.023c0.143-0.006 0.286-0.011 0.428-0.011 7.916-0.249 13.105 6.802 13.105 6.802zM158.556 9.995l-3.732 9.772h7.355l-3.623-9.772z"></path>
</symbol>
<symbol id="oracle" viewBox="0 0 250 32">
<path fill="#36536b" style="fill: var(--color1, inherit)" d="M107.447 20.819h16.446l-8.696-13.837-15.96 25.016h-7.262l19.413-30.048c0.844-1.186 2.213-1.95 3.761-1.95 0.017 0 0.034 0 0.051 0l-0.003-0c1.51 0 2.918 0.708 3.735 1.897l19.49 30.103h-7.264l-3.426-5.591h-16.653l-3.633-5.591zM182.899 26.409v-26.108h-6.163v28.661c0 0.785 0.307 1.544 0.894 2.125 0.589 0.582 1.382 0.911 2.251 0.911h28.109l3.633-5.591h-28.725zM80.922 21.728c5.986 0 10.846-4.781 10.846-10.699 0-5.92-4.86-10.726-10.846-10.726h-26.965v31.697h6.161v-26.106h20.395c0.006-0 0.013-0 0.021-0 2.839 0 5.141 2.299 5.146 5.136v0.001c-0.006 2.836-2.307 5.133-5.144 5.133-0.008 0-0.016-0-0.024-0h0.001l-17.376-0.024 18.4 15.861h8.952l-12.38-10.27h2.814zM16.026 32c-8.847 0-16.026-7.083-16.026-15.836s7.179-15.861 16.026-15.861h18.628c8.849 0 16.024 7.108 16.024 15.861s-7.177 15.836-16.024 15.836h-18.628zM34.24 26.409c5.732 0 10.376-4.58 10.376-10.246s-4.644-10.27-10.376-10.27h-17.801c-5.73 0-10.374 4.604-10.374 10.27s4.644 10.246 10.374 10.246h17.801zM151.285 32c-8.847 0-16.036-7.083-16.036-15.836s7.189-15.861 16.038-15.861h22.125l-3.608 5.591h-18.108c-5.728 0-10.383 4.604-10.383 10.27s4.655 10.246 10.383 10.246h22.227l-3.633 5.591h-19.002zM226.662 26.409c-4.73 0-8.747-3.136-9.975-7.464h26.345l3.631-5.591h-29.976c1.227-4.299 5.244-7.462 9.976-7.462h18.082l3.657-5.591h-22.15c-8.851 0-16.038 7.108-16.038 15.861s7.187 15.834 16.038 15.834h19.004l3.631-5.591h-22.227z"></path>
</symbol>
<symbol id="tesla" viewBox="0 0 247 32">
<path fill="#36536b" style="fill: var(--color1, inherit)" d="M168.371 0.088v25.653h27.746c-0.706 2.645-2.379 4.937-5.463 6.259h-28.536v-31.912h6.253zM144.676 0.088c-0.704 2.733-3.435 5.289-6.782 6.259h-22.020l0.088 6.347h28.536v19.305h-36.552c1.498-3.087 4.493-5.466 8.017-6.436h22.37v-6.609h-28.536v-18.867zM39.898 0v0.088c-0.698 2.829-3.055 5.481-6.374 6.364h-9.952l-0.525 0.177v25.37h-6.199v-25.37l-0.523-0.177h-9.952c-3.23-0.708-5.677-3.535-6.374-6.364l39.898-0.088zM244.296 12.695v19.305h-6.165v-12.87h-22.551v12.87h-6.165v-19.305h34.88zM91.827 25.562c-0.616 2.822-3.081 5.818-6.43 6.436h-23.782c-3.347-0.617-5.813-3.614-6.517-6.436zM91.827 12.604c-0.616 2.822-3.081 5.816-6.43 6.436h-23.782c-3.347-0.706-5.813-3.614-6.517-6.436zM245.088 0c-0.704 2.822-3.081 5.816-6.43 6.436h-23.782c-3.258-0.706-5.724-3.614-6.43-6.436zM91.827 0c-0.616 2.822-3.081 5.816-6.43 6.436h-23.782c-3.347-0.706-5.813-3.614-6.517-6.436z"></path>
</symbol>
<symbol id="twitter" viewBox="0 0 38 32">
<path fill="#fbfcfe" style="fill: var(--color2, #fbfcfe)" d="M38.4 4.091c-1.318 0.6-2.846 1.037-4.449 1.232l-0.076 0.008c1.63-0.986 2.855-2.501 3.448-4.303l0.016-0.056c-1.44 0.87-3.116 1.533-4.902 1.895l-0.101 0.017c-1.439-1.533-3.478-2.488-5.74-2.488-0.004 0-0.007 0-0.011 0h0.001c-5.086 0-8.824 4.746-7.675 9.672-6.562-0.338-12.335-3.457-16.205-8.19l-0.032-0.040c-0.671 1.135-1.067 2.502-1.067 3.961 0 2.722 1.379 5.122 3.476 6.539l0.028 0.018c-1.316-0.043-2.538-0.403-3.606-1.006l0.039 0.020c-0.086 3.65 2.53 7.064 6.318 7.824-0.621 0.175-1.333 0.276-2.070 0.276-0.527 0-1.041-0.052-1.539-0.15l0.050 0.008c1.037 3.155 3.927 5.405 7.352 5.47l0.008 0c-2.664 2.105-6.072 3.377-9.776 3.377-0.665 0-1.321-0.041-1.965-0.121l0.077 0.008c3.408 2.219 7.578 3.539 12.056 3.539 0.007 0 0.014 0 0.022 0h-0.001c14.627 0 22.891-12.354 22.392-23.434 1.548-1.128 2.852-2.479 3.895-4.022l0.036-0.057z"></path>
</symbol>
</defs>
</svg>
