<!-- Generated by IcoMoon.io -->
<svg version="1.1" xmlns="http://www.w3.org/2000/svg" width="94" height="32" viewBox="0 0 94 32">
<title>google</title>
<path fill="#36536b" d="M72.357 7.758l-1.291 1.334h-1.716c1.406 1.235 2.023 2.555 2.023 4.089 0 2.236-1.221 3.357-2.085 4.114-0.158 0.145-0.58 0.448-0.824 0.714-0.138 0.163-0.515 0.594-0.515 1.246 0 0.456 0.146 0.843 0.903 1.451 2.574 1.993 3.59 3.148 3.59 5.256 0 2.991-2.75 6.038-8.061 6.038-4.485 0-6.62-2.267-6.62-4.571 0-2.631 2.36-5.079 8.233-5.449-0.621-0.727-0.913-1.2-0.913-2.040 0.001-0.571 0.237-1.161 0.237-1.161h-0.863c-3.413 0-5.068-2.693-5.068-5.079 0-3.135 2.321-5.942 6.612-5.942h6.359zM66.511 22.947c-4.405 0.063-6.012 1.78-6.012 3.776 0 2.41 2.344 3.885 5.41 3.885 2.793 0 4.517-1.507 4.517-3.428 0-1.398-0.784-2.182-2.039-3.21-0.54-0.426-1.312-0.996-1.312-0.996s-0.236-0.027-0.562-0.027zM13.103 0c4.092 0 6.955 1.245 8.931 2.556l-3.124 3.062v-1.845c-1.667-1.481-3.53-2.543-6.732-2.543-5.061 0-8.688 3.846-8.688 9.329 0 5.591 4.011 11.316 10.833 11.316 1.683 0 3.303-0.223 4.586-0.626v-5.656h-4.111l1.377-1.338h7.331l-1.079 1.057c-0.2 0.18-0.334 0.386-0.334 0.685v5.844c-3.425 0.933-6.385 1.432-9.721 1.432-6.882 0-12.356-4.436-12.356-11.801 0-5.176 4.106-11.472 13.088-11.472zM32.717 7.758c4.461 0.001 7.426 3.497 7.426 7.096 0 3.864-3.034 7.449-7.981 7.449-5.141 0-7.679-3.892-7.679-7.17 0-3.797 3.151-7.375 8.235-7.375zM79.139 0l-1.125 1.105c-0.182 0.157-0.297 0.388-0.297 0.646 0 0.008 0 0.016 0 0.024l-0-0.001v18.511c0 0.398 0.286 0.806 0.766 0.863l1.788 0.22-0.95 0.934h-6.23l1.141-1.119c0.187-0.191 0.274-0.376 0.274-0.649v-19.175h-2.065l1.384-1.361h5.314zM87.537 7.758c3.735 0 5.361 1.927 5.937 3.84l-9.983 3.756c0.953 3.488 3.677 5.386 6.503 5.386 1.487 0 2.607-0.423 3.979-1.067-0.727 0.905-1.722 1.625-2.758 2.069-0.965 0.412-1.995 0.561-3.245 0.561-5.015 0-7.699-3.857-7.699-7.562 0.001-4.486 3.742-6.984 7.264-6.984zM50.333 7.758c4.461 0.001 7.426 3.497 7.426 7.096 0 3.864-3.035 7.449-7.981 7.449-5.141 0-7.679-3.892-7.679-7.17 0.001-3.797 3.151-7.375 8.235-7.375zM31.874 8.801c-0.582 0-1.468 0.111-2.415 0.693-1.158 0.778-1.893 1.834-1.893 3.997 0 2.172 0.766 4.396 1.549 5.591 0.89 1.299 2.078 2.288 3.779 2.288h0.067c0.663-0.015 4.093-0.281 4.093-4.865 0-3.208-1.596-7.705-5.18-7.705zM49.491 8.801c-0.582 0-1.469 0.111-2.415 0.693-1.158 0.778-1.893 1.834-1.893 3.997 0 2.172 0.766 4.396 1.549 5.591 0.889 1.299 2.078 2.288 3.779 2.288h0.067c0.663-0.015 4.093-0.281 4.093-4.865 0-3.208-1.596-7.705-5.18-7.705zM64.814 8.755c-1.5 0-2.762 1.164-2.762 3.353 0 2.424 1.135 4.463 2.277 5.229 0.514 0.364 1.122 0.51 1.629 0.51 1.035 0 2.948-0.696 2.948-3.243 0-2.358-1.216-4.265-1.977-4.975-0.687-0.591-1.336-0.875-2.114-0.875zM86.882 8.784c-1.249 0-3.782 0.871-3.782 4.131 0 0.777 0.167 1.496 0.167 1.496l6.136-2.31c0.488-0.179 0.735-0.372 0.735-0.739 0-1.133-1.367-2.579-3.256-2.579z"></path>
</svg>
