<!-- Generated by IcoMoon.io -->
<svg version="1.1" xmlns="http://www.w3.org/2000/svg" width="168" height="32" viewBox="0 0 168 32">
<title>hewlett-packard</title>
<path fill="#36536b" d="M82.362 19.405l5.703 12.595h-2.937l-1.029-2.279h-7.213l-1.017 2.279h-3.048l5.816-12.595h3.725zM142.347 19.405c2.033 0 3.782 1.425 3.782 3.989 0 2.279-0.45 3.134-1.129 3.705 0.903 0.455 1.129 1.537 1.129 2.278v2.62h-2.709v-2.278c0-0.513-0.565-1.426-1.695-1.426h-4.853v3.706h-2.823v-12.595zM107.305 19.417v4.722h1.24l4.904-4.722h3.833l-6.033 5.915 5.017 5.006v1.65h-2.143l-5.353-5.234h-1.464v5.234h-2.876v-12.571h2.876zM69.599 19.424c1.519 0 3.603 0.966 3.603 4.545 0 3.524-1.915 4.488-3.604 4.488h-6.194v3.524h-2.872v-12.557zM158.191 19.426c2.364 0 3.49 1.647 3.49 3.863v3.836c-0.014 1.787-0.314 4.852-3.546 4.852h-9.173v-12.551zM126.203 19.43l5.685 12.545h-2.927l-1.025-2.271h-7.191l-1.012 2.271h-2.251v-1.76l5.007-10.785h3.713zM99.106 19.437c1.799 0.056 2.866 1.928 2.866 3.006v1.076h-2.867c-0.058-0.568-0.563-1.416-1.012-1.416h-4.948c-1.122 0-0.954 1.133-0.954 1.133v4.99c0 0.908 0.562 1.134 0.9 1.134h4.89c1.067 0 1.182-0.907 1.182-1.474h2.809v1.134c0 1.873-1.292 2.949-2.865 2.949h-6.859c-2.137 0-2.924-1.645-2.924-2.949v-6.635c0-1.416 1.517-2.948 2.867-2.948zM48.024 0c2.335 0 4.228 1.873 4.228 4.231v23.372c0 0.001 0 0.001 0 0.002 0 1.173-0.474 2.236-1.24 3.007l0-0c-0.76 0.764-1.811 1.237-2.974 1.237-0.005 0-0.009 0-0.014-0h-19.98l0.851-2.572c7.087-1.052 12.498-6.633 12.498-13.361 0-7.237-6.261-13.148-14.138-13.522l0.905-2.395h19.864zM21.198 0l-1.013 2.844c-4.877 2.613-8.532 7.867-8.532 13.073 0 5.924 4.207 11.15 10.060 13.049l-1.020 2.884h-15.653c-2.329 0-4.217-1.926-4.217-4.279v-23.307c-0.001-2.351 1.886-4.26 4.217-4.263h16.159zM35.314 9.365c1.574 0 3.206 0.827 2.362 3.087l-2.419 6.728c-0.45 1.268-0.844 2.151-3.207 2.151h-2.957l-3.342 9.483h-3.208l7.538-21.449zM157.461 22.040h-5.63v7.324h5.404c1.012 0 1.575-0.965 1.575-2.043v-3.579c0.058-0.793-0.505-1.702-1.351-1.702zM80.499 21.741l-2.427 5.357h4.799l-2.372-5.357zM124.347 21.758l-2.42 5.336h4.828l-2.408-5.336zM68.754 22.037h-5.35v3.807h5.518c1.24 0 1.24-1.306 1.24-1.874v-0.083c-0.004-0.607-0.064-1.849-1.408-1.849zM141.723 22.027h-4.853v3.647h5.193c1.073 0 1.355-1.311 1.355-1.937 0-0.628-0.282-1.71-1.695-1.71zM25.996 0l-3.364 9.419h1.907c1.961 0 2.971 0.825 2.466 2.472s-3.364 9.445-3.364 9.445h-3.307l3.307-9.225c0.111-0.55 0.111-1.043-0.559-1.043h-1.010l-3.699 10.268-3.196-0.002 7.567-21.333h3.251zM34.133 11.020h-1.407l-3.051 8.658h1.419c0.563 0 0.844-0.607 0.901-0.937 0.004-0.020 0.014-0.060 0.033-0.121l0.075-0.235c0.173-0.524 0.53-1.542 0.913-2.623l0.21-0.593c0.599-1.682 1.189-3.322 1.189-3.322 0.168-0.441 0.225-0.827-0.281-0.827zM92.776 0.185l2.656 8.609 2.824-8.552h2.711l2.823 8.552 2.655-8.609h2.88l-4.065 12.601h-1.695c-0.847-0.001-1.665-1.284-1.836-1.911l-2.117-6.585-2.767 8.495h-1.751c-0.847 0-1.582-1.311-1.752-1.938l-3.447-10.663h2.88zM161.611 0.187v2.622h-4.205v9.971h-2.878v-9.971h-4.148v-2.622h11.231zM88.273 0.198v2.619h-8.681v2.332h7.215v2.617h-7.215v2.389h8.681v2.616h-9.752c-1.128 0-1.804-0.91-1.804-1.65v-9.047c0-1.138 0.676-1.877 1.972-1.877h9.583zM148.312 0.196v2.619h-4.201v9.957h-2.874v-9.957h-4.145v-2.619h11.22zM134.985 0.203v2.615h-8.676v2.331h7.211v2.615h-7.211v2.388h8.676v2.615h-9.746c-1.128 0-1.804-0.909-1.804-1.649v-9.037c0-1.138 0.676-1.877 1.972-1.877h9.576zM63.404 0.206v4.942h7.489v-4.941h2.872v12.557h-2.872v-5.001h-7.49v5.001h-2.871v-12.558h2.872zM114.283 0.211v9.934h7.597v2.612h-8.442c-1.294 0-2.027-0.908-2.027-1.873v-10.675h2.872zM165.502 0.111c0.743-0.012 1.458 0.284 1.978 0.82 0.543 0.548 0.817 1.21 0.817 1.988 0.012 0.751-0.284 1.473-0.818 1.998-0.489 0.511-1.176 0.829-1.937 0.829-0.014 0-0.028-0-0.042-0l0.002 0c-0.013 0-0.029 0-0.044 0-0.759 0-1.444-0.318-1.928-0.828l-0.001-0.001c-0.5-0.497-0.81-1.186-0.81-1.947 0-0.018 0-0.036 0-0.054l-0 0.003c-0-0.012-0-0.026-0-0.041 0-0.762 0.313-1.452 0.818-1.947l0-0c0.487-0.506 1.17-0.82 1.927-0.82 0.013 0 0.027 0 0.040 0l-0.002-0zM165.503 0.491c-0.664 0-1.228 0.237-1.696 0.713-0.467 0.473-0.699 1.044-0.699 1.714-0.012 0.647 0.239 1.272 0.696 1.727 0.418 0.44 1.007 0.714 1.66 0.714 0.013 0 0.027-0 0.040-0l-0.002 0c0.64 0.011 1.256-0.249 1.7-0.713 0.467-0.476 0.699-1.051 0.699-1.727 0-0.67-0.232-1.241-0.699-1.714-0.42-0.44-1.011-0.714-1.666-0.714-0.012 0-0.023 0-0.034 0l0.002-0z"></path>
</svg>
