<!-- Generated by IcoMoon.io -->
<svg version="1.1" xmlns="http://www.w3.org/2000/svg" width="32" height="32" viewBox="0 0 32 32">
<title>icon-consumer-payments</title>
<path fill="#36536b" d="M32 16c0 8.837-7.163 16-16 16s-16-7.163-16-16c0-8.837 7.163-16 16-16s16 7.163 16 16z"></path>
<path fill="#fff" d="M21.739 15.079c0.156 0 0.283 0.127 0.283 0.283v3.121c0 0.899-0.729 1.627-1.627 1.627h-8.805c-0.899 0-1.627-0.728-1.627-1.627v-3.122c0-0.156 0.127-0.283 0.283-0.283zM12.973 16.352h-0.755c-0.273 0-0.495 0.222-0.495 0.495s0.222 0.495 0.495 0.495v0h0.755c0.273 0 0.495-0.222 0.495-0.495s-0.222-0.495-0.495-0.495v0zM20.395 12.075c0 0 0 0 0 0 0.899 0 1.627 0.729 1.627 1.627v0.103c0 0.156-0.127 0.283-0.283 0.283h-11.494c-0.156-0-0.283-0.127-0.283-0.283v0-0.102c0-0 0-0 0-0 0-0.899 0.729-1.627 1.627-1.627v0z"></path>
</svg>
