<!-- Generated by IcoMoon.io -->
<svg version="1.1" xmlns="http://www.w3.org/2000/svg" width="32" height="32" viewBox="0 0 32 32">
<title>icon-banking-and-coverage</title>
<path fill="#36536b" d="M32 16c0 8.837-7.163 16-16 16s-16-7.163-16-16c0-8.837 7.163-16 16-16s16 7.163 16 16z"></path>
<path fill="#fff" d="M20.953 13.5c0.196 0 0.354 0.158 0.354 0.354v7.476h0.377c0.195 0 0.354 0.158 0.354 0.354s-0.158 0.354-0.354 0.354v0h-11.368c-0.195 0-0.354-0.158-0.354-0.354s0.158-0.354 0.354-0.354v0h0.377v-3.938c0-0.195 0.158-0.354 0.354-0.354h1.415c0.196 0 0.354 0.159 0.354 0.354v3.939h0.708v-2.524c0-0.195 0.158-0.354 0.354-0.354h1.415c0.196 0 0.354 0.158 0.354 0.354v2.524h0.708v-5.355c0-0.196 0.158-0.354 0.354-0.354h1.415c0.196 0 0.354 0.158 0.354 0.354v5.354h0.708v-7.476c0-0.196 0.158-0.354 0.354-0.354zM20.245 9.962c0.586 0.001 1.061 0.476 1.061 1.061v0c-0.001 0.586-0.476 1.060-1.061 1.061h-0c-0.217 0-0.419-0.066-0.587-0.178l-1.234 0.926c0.031 0.1 0.053 0.204 0.053 0.314-0 0.586-0.475 1.061-1.061 1.062h-0c-0.166-0.001-0.322-0.040-0.461-0.109l0.006 0.003-1.42 1.421c0.066 0.138 0.106 0.291 0.106 0.455-0.001 0.586-0.476 1.061-1.061 1.061h-0c-0.586-0.001-1.060-0.476-1.061-1.061v-0c0-0.044 0.008-0.086 0.013-0.129l-1.047-0.523c-0.19 0.184-0.449 0.298-0.735 0.298h-0c-0.586-0.001-1.060-0.476-1.061-1.061v-0c0.001-0.586 0.476-1.060 1.061-1.061h0c0.586 0.001 1.060 0.475 1.061 1.061v0c0 0.044-0.008 0.086-0.013 0.129l1.047 0.524c0.19-0.184 0.449-0.298 0.735-0.299h0c0.163 0 0.316 0.040 0.455 0.107l1.42-1.421c-0.066-0.133-0.105-0.289-0.106-0.454v-0c0.001-0.586 0.476-1.061 1.061-1.061h0c0.217 0 0.419 0.066 0.587 0.179l1.234-0.926c-0.032-0.094-0.051-0.201-0.053-0.313v-0.001c0.001-0.586 0.476-1.061 1.061-1.061h0z"></path>
</svg>
