<!-- Generated by IcoMoon.io -->
<svg version="1.1" xmlns="http://www.w3.org/2000/svg" width="32" height="32" viewBox="0 0 32 32">
<title>icon-personal-finances</title>
<path fill="#36536b" d="M32 16c0 8.837-7.163 16-16 16s-16-7.163-16-16c0-8.837 7.163-16 16-16s16 7.163 16 16z"></path>
<path fill="#edf3f8" d="M17.255 14.841l1.409 2.959c0.060 0.126 0.113 0.254 0.159 0.382h-2.235v2.639h-0.879v2.59c-0.203 0.031-0.409 0.048-0.617 0.048h-1.169c-0.003 0-0.007 0-0.011 0-1.399 0-2.627-0.729-3.325-1.829l-0.009-0.016c-0.385-0.598-0.614-1.328-0.614-2.111 0-0.619 0.143-1.205 0.398-1.726l-0.010 0.023 1.409-2.959h5.496zM21.131 21.7v1.759h-4.543v-1.759h4.543zM22.011 19.062v1.759h-4.544v-1.759h4.543zM14.707 16.747h-0.324v0.411c-0.127 0.014-0.246 0.045-0.358 0.094-0.114 0.049-0.211 0.115-0.294 0.196l0-0c-0.084 0.081-0.15 0.178-0.198 0.291s-0.073 0.242-0.073 0.388c0 0.106 0.014 0.199 0.043 0.281s0.072 0.154 0.132 0.218c0.059 0.064 0.135 0.121 0.227 0.171s0.201 0.097 0.328 0.14c0.084 0.030 0.167 0.056 0.251 0.077v0.358c-0.107-0.015-0.203-0.040-0.295-0.074l0.010 0.003c-0.099-0.035-0.18-0.070-0.258-0.11l0.013 0.006c-0.094-0.045-0.17-0.089-0.245-0.136l0.010 0.006-0.34 0.696c0.142 0.085 0.306 0.158 0.478 0.211l0.016 0.004c0.184 0.057 0.368 0.094 0.555 0.11v0.5h0.324v-0.492c0.124-0.008 0.245-0.030 0.36-0.067 0.119-0.037 0.222-0.093 0.312-0.165l-0.002 0.002c0.091-0.072 0.164-0.164 0.219-0.277s0.083-0.248 0.083-0.408c0-0.136-0.020-0.251-0.061-0.346s-0.1-0.177-0.173-0.241l-0.001-0.001c-0.075-0.066-0.167-0.124-0.274-0.173-0.097-0.045-0.215-0.091-0.337-0.129l-0.021-0.006c-0.037-0.010-0.066-0.019-0.094-0.029l0.009 0.003c-0.020-0.008-0.046-0.015-0.072-0.022l-0.005-0.001v-0.366c0.075 0.014 0.151 0.033 0.225 0.059s0.141 0.054 0.2 0.083c0.070 0.033 0.135 0.068 0.194 0.106l0.34-0.655c-0.057-0.027-0.119-0.056-0.186-0.088-0.052-0.025-0.123-0.055-0.196-0.082l-0.021-0.007c-0.061-0.024-0.141-0.049-0.223-0.071l-0.018-0.004c-0.072-0.020-0.16-0.037-0.25-0.048l-0.010-0.001v-0.415zM14.651 19.082c0.054 0.022 0.097 0.047 0.13 0.075 0.029 0.024 0.048 0.059 0.048 0.1v0c0 0.035-0.013 0.064-0.040 0.085s-0.072 0.035-0.138 0.041zM14.44 17.857v0.309c-0.047-0.017-0.087-0.041-0.122-0.072l0 0c-0.025-0.024-0.041-0.058-0.041-0.095 0-0.002 0-0.003 0-0.005v0c0-0.078 0.054-0.125 0.162-0.138zM16.998 13.083v0.879h-4.983v-0.879h4.983zM16.559 8.453l1.553 1.020-0.937 2.73h-5.335l-0.937-2.73 1.553-1.020 1.026 0.674 1.026-0.674 1.026 0.674 1.025-0.674z"></path>
</svg>
