<!-- Generated by IcoMoon.io -->
<svg version="1.1" xmlns="http://www.w3.org/2000/svg" width="44" height="32" viewBox="0 0 44 32">
<title>illustration-easy-to-implement</title>
<path fill="#000" d="M4.541 3.964h30.919c0.318 0 0.577 0.258 0.577 0.577v19.315c0 0.318-0.258 0.577-0.577 0.577h-30.919c-0.318 0-0.577-0.258-0.577-0.577v-19.315c0-0.318 0.258-0.577 0.577-0.577z"></path>
<path fill="#1b262f" d="M4.541 3.964h30.919c0.318 0 0.577 0.258 0.577 0.577v19.315c0 0.318-0.258 0.577-0.577 0.577h-30.919c-0.318 0-0.577-0.258-0.577-0.577v-19.315c0-0.318 0.258-0.577 0.577-0.577z"></path>
<path fill="#2e3f4d" d="M4.541 3.964h30.919c0.318 0 0.577 0.258 0.577 0.577v0 2.306h-32.072v-2.306c0-0.318 0.258-0.577 0.577-0.577v0z"></path>
<path fill="#ba4270" d="M6.27 5.405c0 0.318-0.258 0.577-0.577 0.577s-0.577-0.258-0.577-0.577c0-0.318 0.258-0.577 0.577-0.577s0.577 0.258 0.577 0.577z"></path>
<path fill="#527695" d="M7.885 5.405c0 0.318-0.258 0.577-0.577 0.577s-0.577-0.258-0.577-0.577c0-0.318 0.258-0.577 0.577-0.577s0.577 0.258 0.577 0.577z"></path>
<path fill="#36536b" d="M9.499 5.405c0 0.318-0.258 0.577-0.577 0.577s-0.577-0.258-0.577-0.577c0-0.318 0.258-0.577 0.577-0.577s0.577 0.258 0.577 0.577z"></path>
</svg>
