<!-- Generated by IcoMoon.io -->
<svg version="1.1" xmlns="http://www.w3.org/2000/svg" width="35" height="32" viewBox="0 0 35 32">
<title>illustration-simple-ui</title>
<path fill="#000" d="M18.995 2.694h9.272c0.889 0 1.61 0.69 1.61 1.542v21.104c0 0.851-0.721 1.542-1.61 1.542h-9.272c-0.889 0-1.61-0.69-1.61-1.542v-21.104c0-0.851 0.721-1.542 1.61-1.542z"></path>
<path fill="#213648" d="M18.995 2.694h9.272c0.889 0 1.61 0.69 1.61 1.542v21.104c0 0.851-0.721 1.542-1.61 1.542h-9.272c-0.889 0-1.61-0.69-1.61-1.542v-21.104c0-0.851 0.721-1.542 1.61-1.542z"></path>
<path fill="#000" opacity="0.3874" d="M28.303 2.667h-9.349c-0.437 0.027-0.839 0.226-1.208 0.598 0.237-0.207 0.66-0.484 1.219-0.484h9.327c0.559 0 0.982 0.277 1.219 0.484-0.369-0.372-0.771-0.571-1.208-0.598z"></path>
<path fill="#000" opacity="0.75" d="M29.624 25.099v-20.736c0-0.556-0.204-0.762-0.326-0.894s-0.127-0.199 0.048-0.1c0.175 0.1 0.526 0.39 0.526 0.994v20.736c0 0.604-0.351 0.894-0.526 0.994s-0.17 0.032-0.048-0.1 0.326-0.338 0.326-0.894z"></path>
<path fill="#000" opacity="0.75" d="M17.633 25.099v-20.736c0-0.556 0.204-0.762 0.326-0.894s0.127-0.199-0.048-0.1c-0.175 0.1-0.526 0.39-0.526 0.994v20.736c0 0.604 0.351 0.894 0.526 0.994s0.17 0.032 0.048-0.1-0.326-0.338-0.326-0.894z"></path>
<path fill="#2e423c" d="M17.358 7.591h0.047c0.054 0 0.097 0.043 0.097 0.097v0 2.926c0 0.054-0.043 0.097-0.097 0.097v0h-0.047c-0.054 0-0.097-0.043-0.097-0.097v0-2.926c0-0.054 0.043-0.097 0.097-0.097v0zM29.844 10.135h0.047c0.054 0 0.097 0.043 0.097 0.097v0 2.082c0 0.054-0.043 0.097-0.097 0.097v0h-0.047c-0.054 0-0.097-0.043-0.097-0.097v0-2.082c0-0.054 0.043-0.097 0.097-0.097v0z"></path>
<path fill="#36536b" d="M22.53 3.27h-3.608c-0.538 0-0.931 0.367-0.931 0.846v20.48c0 0.625 0.606 1.178 1.292 1.178h8.695c0.66 0 1.292-0.558 1.292-1.178v-20.424c0-0.574-0.426-0.898-0.931-0.901h-3.665c-0.014 0.002-0.266 0.106-0.372 0.367s-0.32 0.469-0.555 0.469h-0.272c-0.111 0-0.405-0.108-0.553-0.469s-0.378-0.364-0.392-0.367z"></path>
<path fill="#000" d="M19.588 9.552h8.049c0.134 0 0.242 0.109 0.242 0.242v8.776c0 0.134-0.109 0.242-0.242 0.242h-8.049c-0.134 0-0.242-0.109-0.242-0.242v-8.776c0-0.134 0.109-0.242 0.242-0.242z"></path>
<path fill="#fbfcfe" d="M19.588 9.552h8.049c0.134 0 0.242 0.109 0.242 0.242v8.776c0 0.134-0.109 0.242-0.242 0.242h-8.049c-0.134 0-0.242-0.109-0.242-0.242v-8.776c0-0.134 0.109-0.242 0.242-0.242z"></path>
<path fill="#ba4270" opacity="0.25" d="M24.921 12.655c0 0.75-0.608 1.358-1.358 1.358s-1.358-0.608-1.358-1.358c0-0.75 0.608-1.358 1.358-1.358s1.358 0.608 1.358 1.358z"></path>
<path fill="#ba4270" d="M21.188 18.085h4.897c0.402 0 0.727 0.326 0.727 0.727s-0.326 0.727-0.727 0.727h-4.897c-0.402 0-0.727-0.326-0.727-0.727s0.326-0.727 0.727-0.727z"></path>
<path fill="#000" d="M4.304 2.694h9.272c0.889 0 1.61 0.69 1.61 1.542v21.104c0 0.851-0.721 1.542-1.61 1.542h-9.272c-0.889 0-1.61-0.69-1.61-1.542v-21.104c0-0.851 0.721-1.542 1.61-1.542z"></path>
<path fill="#213648" d="M4.304 2.694h9.272c0.889 0 1.61 0.69 1.61 1.542v21.104c0 0.851-0.721 1.542-1.61 1.542h-9.272c-0.889 0-1.61-0.69-1.61-1.542v-21.104c0-0.851 0.721-1.542 1.61-1.542z"></path>
<path fill="#000" opacity="0.3874" d="M13.612 2.667h-9.349c-0.437 0.027-0.839 0.226-1.208 0.598 0.237-0.207 0.66-0.484 1.219-0.484h9.327c0.559 0 0.982 0.277 1.219 0.484-0.369-0.372-0.771-0.571-1.208-0.598z"></path>
<path fill="#000" opacity="0.75" d="M14.933 25.099v-20.736c0-0.556-0.204-0.762-0.326-0.894s-0.127-0.199 0.048-0.1c0.175 0.1 0.526 0.39 0.526 0.994v20.736c0 0.604-0.351 0.894-0.526 0.994s-0.17 0.032-0.048-0.1 0.326-0.338 0.326-0.894z"></path>
<path fill="#000" opacity="0.75" d="M2.942 25.099v-20.736c0-0.556 0.204-0.762 0.326-0.894s0.127-0.199-0.048-0.1c-0.175 0.1-0.526 0.39-0.526 0.994v20.736c0 0.604 0.351 0.894 0.526 0.994s0.17 0.032 0.048-0.1-0.326-0.338-0.326-0.894z"></path>
<path fill="#2e423c" d="M2.667 7.591h0.047c0.054 0 0.097 0.043 0.097 0.097v0 2.926c0 0.054-0.043 0.097-0.097 0.097v0h-0.047c-0.054 0-0.097-0.043-0.097-0.097v0-2.926c0-0.054 0.043-0.097 0.097-0.097v0zM15.153 10.135h0.047c0.054 0 0.097 0.043 0.097 0.097v0 2.082c0 0.054-0.043 0.097-0.097 0.097v0h-0.047c-0.054 0-0.097-0.043-0.097-0.097v0-2.082c0-0.054 0.043-0.097 0.097-0.097v0z"></path>
<path fill="#edf3f8" d="M7.839 3.27h-3.608c-0.538 0-0.931 0.367-0.931 0.846v20.48c0 0.625 0.606 1.178 1.292 1.178h8.695c0.66 0 1.292-0.558 1.292-1.178v-20.424c0-0.574-0.426-0.898-0.931-0.901h-3.665c-0.014 0.002-0.266 0.106-0.372 0.367s-0.32 0.469-0.555 0.469h-0.272c-0.111 0-0.405-0.108-0.553-0.469s-0.378-0.364-0.392-0.367z"></path>
<path fill="#000" d="M4.267 11.055h9.406c0.134 0 0.242 0.109 0.242 0.242v1.455c0 0.134-0.109 0.242-0.242 0.242h-9.406c-0.134 0-0.242-0.109-0.242-0.242v-1.455c0-0.134 0.109-0.242 0.242-0.242z"></path>
<path fill="#fbfcfe" d="M4.267 11.055h9.406c0.134 0 0.242 0.109 0.242 0.242v1.455c0 0.134-0.109 0.242-0.242 0.242h-9.406c-0.134 0-0.242-0.109-0.242-0.242v-1.455c0-0.134 0.109-0.242 0.242-0.242z"></path>
<path fill="#000" d="M4.267 13.382h9.406c0.134 0 0.242 0.109 0.242 0.242v1.455c0 0.134-0.109 0.242-0.242 0.242h-9.406c-0.134 0-0.242-0.109-0.242-0.242v-1.455c0-0.134 0.109-0.242 0.242-0.242z"></path>
<path fill="#fbfcfe" d="M4.267 13.382h9.406c0.134 0 0.242 0.109 0.242 0.242v1.455c0 0.134-0.109 0.242-0.242 0.242h-9.406c-0.134 0-0.242-0.109-0.242-0.242v-1.455c0-0.134 0.109-0.242 0.242-0.242z"></path>
<path fill="#000" d="M4.267 15.709h9.406c0.134 0 0.242 0.109 0.242 0.242v1.455c0 0.134-0.109 0.242-0.242 0.242h-9.406c-0.134 0-0.242-0.109-0.242-0.242v-1.455c0-0.134 0.109-0.242 0.242-0.242z"></path>
<path fill="#fbfcfe" d="M4.267 15.709h9.406c0.134 0 0.242 0.109 0.242 0.242v1.455c0 0.134-0.109 0.242-0.242 0.242h-9.406c-0.134 0-0.242-0.109-0.242-0.242v-1.455c0-0.134 0.109-0.242 0.242-0.242z"></path>
<path fill="#000" d="M4.267 18.036h9.406c0.134 0 0.242 0.109 0.242 0.242v1.455c0 0.134-0.109 0.242-0.242 0.242h-9.406c-0.134 0-0.242-0.109-0.242-0.242v-1.455c0-0.134 0.109-0.242 0.242-0.242z"></path>
<path fill="#fbfcfe" d="M4.267 18.036h9.406c0.134 0 0.242 0.109 0.242 0.242v1.455c0 0.134-0.109 0.242-0.242 0.242h-9.406c-0.134 0-0.242-0.109-0.242-0.242v-1.455c0-0.134 0.109-0.242 0.242-0.242z"></path>
<path fill="#000" d="M4.267 20.364h9.406c0.134 0 0.242 0.109 0.242 0.242v1.455c0 0.134-0.109 0.242-0.242 0.242h-9.406c-0.134 0-0.242-0.109-0.242-0.242v-1.455c0-0.134 0.109-0.242 0.242-0.242z"></path>
<path fill="#fbfcfe" d="M4.267 20.364h9.406c0.134 0 0.242 0.109 0.242 0.242v1.455c0 0.134-0.109 0.242-0.242 0.242h-9.406c-0.134 0-0.242-0.109-0.242-0.242v-1.455c0-0.134 0.109-0.242 0.242-0.242z"></path>
<path fill="#000" d="M4.267 22.691h9.406c0.134 0 0.242 0.109 0.242 0.242v1.455c0 0.134-0.109 0.242-0.242 0.242h-9.406c-0.134 0-0.242-0.109-0.242-0.242v-1.455c0-0.134 0.109-0.242 0.242-0.242z"></path>
<path fill="#fbfcfe" d="M4.267 22.691h9.406c0.134 0 0.242 0.109 0.242 0.242v1.455c0 0.134-0.109 0.242-0.242 0.242h-9.406c-0.134 0-0.242-0.109-0.242-0.242v-1.455c0-0.134 0.109-0.242 0.242-0.242z"></path>
<path fill="#000" d="M4.267 25.018h9.406c0.134 0 0.242 0.109 0.242 0.242v1.455c0 0.134-0.109 0.242-0.242 0.242h-9.406c-0.134 0-0.242-0.109-0.242-0.242v-1.455c0-0.134 0.109-0.242 0.242-0.242z"></path>
<path fill="#fbfcfe" d="M4.267 25.018h9.406c0.134 0 0.242 0.109 0.242 0.242v1.455c0 0.134-0.109 0.242-0.242 0.242h-9.406c-0.134 0-0.242-0.109-0.242-0.242v-1.455c0-0.134 0.109-0.242 0.242-0.242z"></path>
<path fill="#36536b" d="M3.301 3.27h11.297v5.527h-11.297z"></path>
<path fill="#000" d="M4.267 7.176h9.406c0.134 0 0.242 0.109 0.242 0.242v2.23c0 0.134-0.109 0.242-0.242 0.242h-9.406c-0.134 0-0.242-0.109-0.242-0.242v-2.23c0-0.134 0.109-0.242 0.242-0.242z"></path>
<path fill="#fbfcfe" d="M4.267 7.176h9.406c0.134 0 0.242 0.109 0.242 0.242v2.23c0 0.134-0.109 0.242-0.242 0.242h-9.406c-0.134 0-0.242-0.109-0.242-0.242v-2.23c0-0.134 0.109-0.242 0.242-0.242z"></path>
<path fill="#fff" d="M8.433 5.936v-0.24h0.002c0.017 0.025 0.039 0.044 0.065 0.056 0.025 0.012 0.054 0.019 0.085 0.019 0.001 0 0.001 0 0.002 0h-0c0.037 0 0.070-0.007 0.098-0.022s0.051-0.034 0.069-0.057l0-0c0.019-0.024 0.033-0.052 0.042-0.083s0.014-0.064 0.014-0.098c0-0.036-0.005-0.070-0.014-0.103s-0.023-0.062-0.043-0.087l0 0.001c-0.019-0.025-0.043-0.045-0.070-0.059l-0.001-0.001c-0.029-0.015-0.063-0.023-0.103-0.023-0.031 0-0.060 0.006-0.086 0.019s-0.048 0.032-0.065 0.060h-0.002v-0.065h-0.132v0.684h0.139zM8.549 5.668c-0.022 0-0.041-0.005-0.057-0.014s-0.028-0.021-0.037-0.035l-0-0c-0.009-0.015-0.017-0.032-0.020-0.050l-0-0.001c-0.004-0.018-0.006-0.039-0.006-0.060 0-0 0-0 0-0v0c0-0.021 0.002-0.041 0.006-0.061s0.011-0.037 0.020-0.052c0.010-0.015 0.022-0.027 0.037-0.037l0.001-0c0.015-0.009 0.034-0.014 0.057-0.014s0.041 0.005 0.056 0.014c0.015 0.010 0.028 0.022 0.038 0.037s0.017 0.033 0.021 0.052c0.004 0.020 0.006 0.040 0.006 0.060s-0.002 0.040-0.006 0.060c-0.004 0.020-0.011 0.037-0.020 0.051s-0.022 0.027-0.037 0.035l-0.001 0c-0.015 0.009-0.034 0.014-0.057 0.014zM9.036 5.771c0 0 0 0 0 0 0.033 0 0.064-0.005 0.094-0.014l-0.002 0.001c0.031-0.010 0.057-0.026 0.078-0.048l0-0c0.001 0.018 0.005 0.035 0.010 0.050l-0-0.001h0.141c-0.007-0.010-0.011-0.026-0.014-0.047s-0.004-0.043-0.004-0.066v-0.263c0-0.031-0.007-0.055-0.021-0.074s-0.032-0.033-0.052-0.043l-0.001-0c-0.021-0.010-0.045-0.018-0.070-0.021l-0.001-0c-0.023-0.003-0.050-0.005-0.077-0.005h-0c-0.030 0-0.059 0.003-0.087 0.009l0.003-0c-0.028 0.005-0.053 0.015-0.076 0.029l0.001-0.001c-0.022 0.013-0.041 0.031-0.054 0.051l-0 0.001c-0.014 0.022-0.023 0.049-0.025 0.081h0.139c0.003-0.027 0.012-0.047 0.027-0.059s0.037-0.018 0.065-0.018c0.012 0 0.024 0.001 0.035 0.002s0.020 0.005 0.028 0.010c0.008 0.005 0.015 0.012 0.020 0.021s0.007 0.021 0.007 0.036c0.001 0.014-0.004 0.025-0.013 0.033s-0.022 0.013-0.037 0.017c-0.016 0.004-0.034 0.007-0.054 0.009s-0.041 0.005-0.062 0.008c-0.021 0.003-0.042 0.008-0.062 0.013s-0.039 0.014-0.055 0.025l0.001-0c-0.016 0.011-0.029 0.026-0.039 0.045s-0.015 0.042-0.015 0.071c0 0.026 0.004 0.049 0.013 0.068s0.021 0.035 0.037 0.047c0.016 0.012 0.034 0.022 0.055 0.027s0.043 0.009 0.068 0.009zM9.087 5.679c-0.011 0-0.022-0.001-0.032-0.003s-0.020-0.005-0.028-0.010l0 0c-0.008-0.005-0.014-0.012-0.018-0.020l-0-0c-0.004-0.008-0.007-0.019-0.007-0.029 0-0.001 0-0.002 0-0.002v0c0-0.013 0.002-0.024 0.007-0.032s0.011-0.016 0.018-0.021c0.008-0.006 0.016-0.010 0.026-0.013s0.020-0.006 0.031-0.008c0.011-0.002 0.022-0.004 0.033-0.005s0.022-0.003 0.032-0.005c0.010-0.002 0.020-0.004 0.028-0.007s0.016-0.007 0.022-0.012v0.052c0 0.008-0.001 0.018-0.002 0.031s-0.006 0.026-0.013 0.039c-0.008 0.014-0.019 0.025-0.033 0.033l-0 0c-0.015 0.009-0.036 0.014-0.064 0.014zM9.515 5.936c0.048 0 0.085-0.009 0.112-0.026s0.048-0.047 0.063-0.088l0.212-0.569h-0.144l-0.111 0.347h-0.002l-0.115-0.347h-0.148l0.177 0.475c0.004 0.010 0.006 0.020 0.006 0.031 0 0.015-0.004 0.029-0.013 0.041s-0.022 0.020-0.041 0.022c-0.004 0-0.009 0-0.014 0-0.010 0-0.019-0-0.029-0.001l0.001 0-0.040-0.004v0.115c0.014 0.001 0.029 0.002 0.043 0.003s0.028 0.001 0.043 0.001zM10.088 5.77c0.024 0 0.046-0.003 0.067-0.009s0.038-0.014 0.054-0.024c0.016-0.010 0.030-0.022 0.041-0.036s0.020-0.028 0.025-0.043h0.002v0.026c0 0.010 0.001 0.020 0.002 0.029s0.005 0.016 0.009 0.023c0.005 0.007 0.012 0.012 0.020 0.016l0 0c0.009 0.004 0.021 0.006 0.036 0.006 0.010 0 0.021-0.001 0.030-0.004v-0.031c-0.012 0.002-0.021 0.003-0.027 0.003-0.008 0-0.015-0.002-0.020-0.005s-0.008-0.008-0.010-0.014l-0-0c-0.002-0.006-0.003-0.013-0.003-0.019v-0c-0-0.006-0.001-0.014-0.001-0.021 0-0 0-0 0-0v0-0.293c0-0.039-0.014-0.070-0.042-0.094s-0.072-0.036-0.133-0.036c-0.061 0-0.108 0.014-0.141 0.042s-0.051 0.069-0.053 0.125h0.037c0.003-0.045 0.018-0.079 0.046-0.101s0.064-0.033 0.109-0.033c0.025 0 0.047 0.003 0.065 0.008 0.017 0.005 0.031 0.012 0.043 0.022l-0-0c0.011 0.009 0.019 0.020 0.024 0.031s0.008 0.024 0.008 0.038c0 0.018-0.001 0.032-0.003 0.044s-0.007 0.021-0.015 0.029c-0.008 0.008-0.019 0.013-0.035 0.018s-0.036 0.007-0.063 0.009l-0.058 0.005c-0.020 0.002-0.041 0.005-0.063 0.010s-0.043 0.013-0.061 0.024l0.001-0c-0.018 0.011-0.033 0.025-0.045 0.044s-0.018 0.043-0.018 0.072c0 0.048 0.015 0.084 0.044 0.107s0.071 0.035 0.124 0.035zM10.089 5.738c-0.041 0-0.073-0.009-0.097-0.027s-0.035-0.046-0.035-0.083c0-0.024 0.005-0.043 0.014-0.057s0.021-0.026 0.036-0.035c0.015-0.008 0.031-0.015 0.049-0.018s0.037-0.006 0.055-0.008l0.063-0.006c0.023-0.002 0.044-0.005 0.062-0.009s0.033-0.011 0.042-0.023v0.094c0 0.007-0.002 0.019-0.005 0.038s-0.012 0.038-0.025 0.058c-0.013 0.020-0.032 0.038-0.057 0.053s-0.058 0.023-0.101 0.023zM10.471 5.939v-0.285h0.002c0.015 0.041 0.039 0.071 0.072 0.089s0.070 0.027 0.112 0.027c0.039 0 0.072-0.007 0.1-0.020s0.052-0.031 0.070-0.054l0-0c0.019-0.023 0.033-0.051 0.042-0.083s0.014-0.067 0.014-0.106c0-0.035-0.005-0.069-0.014-0.101s-0.023-0.060-0.042-0.085l0 0.001c-0.019-0.024-0.042-0.044-0.069-0.057l-0.001-0.001c-0.028-0.014-0.062-0.022-0.1-0.022-0.027 0-0.052 0.004-0.073 0.013s-0.039 0.019-0.055 0.032l0-0c-0.015 0.013-0.027 0.027-0.036 0.042s-0.016 0.029-0.020 0.041h-0.002v-0.116h-0.037v0.684h0.037zM10.656 5.738c-0.035 0-0.065-0.006-0.089-0.019s-0.042-0.029-0.056-0.050l-0-0.001c-0.014-0.021-0.024-0.046-0.030-0.072l-0-0.001c-0.006-0.026-0.009-0.055-0.009-0.085 0-0 0-0.001 0-0.001v0c0-0.030 0.003-0.059 0.010-0.087s0.017-0.053 0.032-0.075l-0.001 0.001c0.015-0.022 0.034-0.039 0.056-0.051l0.001-0c0.024-0.013 0.052-0.020 0.085-0.020s0.063 0.007 0.087 0.020 0.043 0.031 0.058 0.053c0.015 0.022 0.026 0.047 0.033 0.074 0.007 0.025 0.011 0.054 0.011 0.085 0 0 0 0 0 0v-0c0 0.031-0.004 0.061-0.011 0.089s-0.019 0.052-0.035 0.074l0-0.001c-0.015 0.021-0.035 0.038-0.059 0.050s-0.052 0.019-0.085 0.019zM11.008 5.16v-0.101h-0.037v0.101h0.037zM11.008 5.759v-0.504h-0.037v0.504h0.037z"></path>
<path fill="#fff" d="M7.536 5.115c-0.036 0.036-0.094 0.036-0.13 0s-0.036-0.094 0-0.13c0.036-0.036 0.094-0.036 0.13 0s0.036 0.094 0 0.13z"></path>
<path fill="#fff" d="M7.753 5.332c-0.036 0.036-0.094 0.036-0.13 0s-0.036-0.094 0-0.13c0.036-0.036 0.094-0.036 0.13 0s0.036 0.094 0 0.13z"></path>
<path fill="#fff" d="M7.969 5.548c-0.036 0.036-0.094 0.036-0.13 0s-0.036-0.094 0-0.13c0.036-0.036 0.094-0.036 0.13 0s0.036 0.094 0 0.13z"></path>
<path fill="#fff" d="M7.319 5.332c-0.036 0.036-0.094 0.036-0.13 0s-0.036-0.094 0-0.13c0.036-0.036 0.094-0.036 0.13 0s0.036 0.094 0 0.13z"></path>
<path fill="#fff" opacity="0.5" d="M7.536 5.548c-0.036 0.036-0.094 0.036-0.13 0s-0.036-0.094 0-0.13c0.036-0.036 0.094-0.036 0.13 0s0.036 0.094 0 0.13z"></path>
<path fill="#fff" opacity="0.5" d="M7.753 5.765c-0.036 0.036-0.094 0.036-0.13 0s-0.036-0.094 0-0.13c0.036-0.036 0.094-0.036 0.13 0s0.036 0.094 0 0.13z"></path>
<path fill="#fff" d="M7.103 5.548c-0.036 0.036-0.094 0.036-0.13 0s-0.036-0.094 0-0.13c0.036-0.036 0.094-0.036 0.13 0s0.036 0.094 0 0.13z"></path>
<path fill="#fff" opacity="0.5" d="M7.319 5.765c-0.036 0.036-0.094 0.036-0.13 0s-0.036-0.094 0-0.13c0.036-0.036 0.094-0.036 0.13 0s0.036 0.094 0 0.13z"></path>
<path fill="#fff" opacity="0.25" d="M7.536 5.981c-0.036 0.036-0.094 0.036-0.13 0s-0.036-0.094 0-0.13c0.036-0.036 0.094-0.036 0.13 0s0.036 0.094 0 0.13z"></path>
</svg>
