<!-- Generated by IcoMoon.io -->
<svg version="1.1" xmlns="http://www.w3.org/2000/svg" width="114" height="32" viewBox="0 0 114 32">
<title>logo</title>
<path  d="M42.563 28.576v-6.602h0.054c0.451 0.664 1.056 1.191 1.765 1.538l0.027 0.012c0.728 0.35 1.523 0.525 2.385 0.525 1.024 0 1.917-0.198 2.681-0.593s1.402-0.93 1.904-1.577l0.010-0.013c0.5-0.65 0.893-1.414 1.133-2.242l0.012-0.048c0.239-0.797 0.377-1.713 0.377-2.661 0-0.012-0-0.023-0-0.035v0.002c0-0.988-0.126-1.936-0.377-2.843s-0.637-1.702-1.159-2.385c-0.525-0.681-1.182-1.235-1.935-1.628l-0.032-0.015c-0.791-0.413-1.734-0.62-2.829-0.62-0.862 0-1.653 0.171-2.371 0.512s-1.311 0.889-1.779 1.644h-0.054v-1.779h-3.638v18.809h3.827zM45.77 21.192c-0.611 0-1.132-0.126-1.563-0.377-0.424-0.246-0.772-0.577-1.030-0.972l-0.007-0.012c-0.259-0.406-0.455-0.88-0.561-1.387l-0.005-0.028c-0.111-0.492-0.175-1.057-0.175-1.637 0-0.002 0-0.005 0-0.007v0c0-0.575 0.054-1.132 0.162-1.671 0.103-0.539 0.295-1.018 0.563-1.446l-0.010 0.018c0.261-0.413 0.602-0.749 1.024-1.011s0.947-0.391 1.576-0.391c0.611 0 1.128 0.131 1.549 0.391s0.768 0.602 1.037 1.024 0.463 0.903 0.579 1.442c0.117 0.539 0.175 1.086 0.175 1.644s-0.054 1.105-0.162 1.644-0.292 1.011-0.552 1.415c-0.261 0.404-0.602 0.733-1.024 0.984s-0.947 0.377-1.576 0.377zM59.144 24.049c0.862 0 1.707-0.126 2.533-0.377 0.851-0.262 1.577-0.718 2.154-1.319l0.002-0.002c0.036 0.494 0.132 0.952 0.281 1.386l-0.011-0.039h3.88c-0.179-0.287-0.306-0.718-0.377-1.293-0.069-0.531-0.108-1.145-0.108-1.769 0-0.013 0-0.026 0-0.039v0.002-7.249c0-0.845-0.189-1.523-0.566-2.035-0.379-0.509-0.867-0.916-1.432-1.189l-0.023-0.010c-0.572-0.279-1.235-0.483-1.934-0.576l-0.033-0.004c-0.639-0.094-1.377-0.147-2.128-0.148h-0.001c-0.772 0-1.541 0.076-2.304 0.229-0.776 0.151-1.467 0.418-2.092 0.785l0.031-0.017c-0.612 0.362-1.117 0.842-1.499 1.412l-0.010 0.017c-0.396 0.593-0.62 1.339-0.674 2.237h3.827c0.072-0.755 0.323-1.293 0.755-1.617s1.024-0.485 1.779-0.485c0.341 0 0.66 0.023 0.957 0.067s0.557 0.135 0.781 0.269 0.404 0.323 0.539 0.566c0.135 0.243 0.202 0.57 0.202 0.984 0.018 0.396-0.099 0.696-0.35 0.903s-0.593 0.364-1.024 0.472c-0.431 0.108-0.925 0.189-1.482 0.243s-1.123 0.126-1.698 0.216c-0.575 0.090-1.145 0.211-1.711 0.364-0.574 0.152-1.077 0.388-1.525 0.698l0.016-0.011c-0.44 0.306-0.8 0.714-1.078 1.226s-0.418 1.163-0.418 1.954c0 0.718 0.121 1.339 0.364 1.859 0.239 0.517 0.582 0.95 1.004 1.288l0.007 0.005c0.431 0.341 0.935 0.593 1.509 0.755 0.542 0.154 1.164 0.243 1.806 0.243 0.019 0 0.037-0 0.056-0l-0.003 0zM60.573 21.516c-0.306 0-0.602-0.027-0.889-0.081-0.284-0.050-0.538-0.149-0.764-0.288l0.009 0.005c-0.217-0.137-0.39-0.324-0.508-0.545l-0.004-0.008c-0.126-0.233-0.189-0.521-0.189-0.862 0-0.36 0.063-0.656 0.189-0.889s0.292-0.427 0.499-0.579c0.208-0.152 0.45-0.276 0.71-0.359l0.018-0.005c0.278-0.090 0.562-0.162 0.849-0.216 0.306-0.054 0.611-0.099 0.916-0.135s0.598-0.081 0.876-0.135c0.278-0.054 0.539-0.121 0.781-0.202s0.445-0.194 0.606-0.337v1.428c0 0.216-0.023 0.503-0.067 0.862-0.055 0.399-0.183 0.758-0.371 1.078l0.007-0.014c-0.198 0.35-0.503 0.651-0.916 0.903s-0.997 0.377-1.752 0.377zM72.33 28.576c1.311 0 2.335-0.243 3.072-0.728s1.311-1.293 1.725-2.425l5.821-15.656h-3.961l-3.045 9.539h-0.054l-3.153-9.539h-4.069l4.877 13.069c0.108 0.269 0.162 0.557 0.162 0.862 0 0.413-0.121 0.791-0.364 1.132s-0.616 0.539-1.118 0.593c-0.377 0.018-0.755 0.008-1.132-0.027s-0.746-0.072-1.105-0.108v3.153c0.395 0.036 0.786 0.067 1.172 0.094s0.776 0.040 1.172 0.040zM88.076 24.022c0.664 0 1.275-0.081 1.832-0.243 0.569-0.163 1.066-0.393 1.517-0.687l-0.021 0.013c0.44-0.287 0.813-0.615 1.118-0.984s0.539-0.759 0.701-1.172h0.054v0.728c0 0.287 0.022 0.552 0.067 0.795s0.13 0.454 0.256 0.633c0.125 0.179 0.31 0.323 0.552 0.431s0.57 0.162 0.984 0.162c0.286 0 0.566-0.036 0.835-0.108v-0.862c-0.222 0.044-0.482 0.073-0.747 0.081l-0.007 0c-0.234 0-0.413-0.050-0.539-0.148s-0.218-0.232-0.268-0.385l-0.002-0.006c-0.053-0.16-0.087-0.344-0.094-0.535l-0-0.003c-0.009-0.198-0.013-0.396-0.013-0.593v-8.057c0-1.060-0.382-1.917-1.145-2.573s-1.981-0.984-3.651-0.984-2.96 0.381-3.867 1.145c-0.908 0.764-1.398 1.909-1.469 3.436h1.024c0.072-1.24 0.488-2.164 1.253-2.776 0.763-0.611 1.765-0.916 3.005-0.916 0.701 0 1.293 0.072 1.779 0.216s0.88 0.341 1.186 0.593c0.305 0.252 0.53 0.539 0.674 0.862s0.216 0.674 0.216 1.051c0 0.485-0.027 0.889-0.081 1.213-0.046 0.314-0.192 0.588-0.404 0.795l-0 0c-0.216 0.206-0.535 0.368-0.957 0.485s-1.002 0.202-1.738 0.256l-1.59 0.135c-0.557 0.054-1.137 0.143-1.738 0.269s-1.15 0.337-1.644 0.633c-0.502 0.307-0.914 0.714-1.217 1.197l-0.009 0.015c-0.323 0.512-0.485 1.172-0.485 1.981 0 1.33 0.404 2.313 1.213 2.951s1.949 0.957 3.422 0.957zM88.103 23.133c-1.132 0-2.021-0.247-2.668-0.741s-0.97-1.253-0.97-2.277c0-0.647 0.125-1.172 0.377-1.576s0.579-0.723 0.984-0.957c0.392-0.227 0.849-0.401 1.333-0.494l0.028-0.004c0.394-0.084 0.909-0.164 1.43-0.222l0.079-0.007 1.725-0.162c0.647-0.053 1.232-0.139 1.804-0.259l-0.093 0.016c0.512-0.108 0.893-0.314 1.145-0.62v2.587c0 0.179-0.051 0.525-0.148 1.037-0.099 0.512-0.328 1.042-0.687 1.59s-0.881 1.033-1.563 1.455c-0.683 0.422-1.608 0.633-2.776 0.633zM98.621 28.657v-7.842h0.053c0.413 1.132 1.069 1.949 1.967 2.452s1.923 0.755 3.072 0.755c1.061 0 1.981-0.179 2.762-0.539 0.775-0.353 1.424-0.86 1.933-1.486l0.008-0.010c0.512-0.637 0.894-1.397 1.145-2.277 0.253-0.88 0.377-1.85 0.377-2.91 0-0.97-0.125-1.895-0.377-2.776s-0.633-1.653-1.145-2.317c-0.517-0.664-1.165-1.2-1.908-1.575l-0.032-0.015c-0.781-0.396-1.701-0.593-2.762-0.593-0.755 0-1.423 0.117-2.008 0.35-0.573 0.224-1.068 0.52-1.504 0.883l0.009-0.007c-0.413 0.35-0.745 0.733-0.997 1.145s-0.431 0.791-0.539 1.132h-0.054v-3.18h-1.024v18.809h1.024zM103.713 23.133c-0.97 0-1.783-0.175-2.439-0.525-0.639-0.337-1.165-0.811-1.553-1.386l-0.010-0.015c-0.386-0.584-0.66-1.257-0.822-2.021-0.154-0.706-0.243-1.517-0.243-2.348 0-0.013 0-0.026 0-0.039v0.002c0-0.826 0.090-1.621 0.269-2.385 0.177-0.772 0.48-1.453 0.889-2.056l-0.013 0.021c0.408-0.593 0.937-1.074 1.553-1.416l0.023-0.012c0.647-0.36 1.428-0.539 2.344-0.539 0.935 0 1.73 0.184 2.385 0.552 0.649 0.363 1.186 0.853 1.593 1.44l0.010 0.016c0.413 0.602 0.719 1.284 0.916 2.048s0.296 1.541 0.296 2.331c0 0.862-0.103 1.676-0.31 2.439s-0.52 1.432-0.943 2.008c-0.426 0.574-0.967 1.037-1.591 1.362l-0.026 0.012c-0.655 0.341-1.432 0.512-2.331 0.512zM113.395 7.234v-2.776h-1.024v2.776h1.024zM113.395 23.699v-13.851h-1.024v13.851h1.024z"></path>
<path  d="M17.906 5.997c-0.987 0.987-2.586 0.987-3.573 0s-0.987-2.586 0-3.573c0.987-0.987 2.586-0.987 3.573 0s0.987 2.586 0 3.573z"></path>
<path  d="M23.86 11.951c-0.987 0.987-2.586 0.987-3.573 0s-0.987-2.586 0-3.573c0.987-0.987 2.586-0.987 3.573 0s0.987 2.586 0 3.573z"></path>
<path  d="M29.815 17.906c-0.987 0.987-2.586 0.987-3.573 0s-0.987-2.586 0-3.573c0.987-0.987 2.586-0.987 3.573 0s0.987 2.586 0 3.573z"></path>
<path  d="M11.951 11.951c-0.987 0.987-2.586 0.987-3.573 0s-0.987-2.586 0-3.573c0.987-0.987 2.586-0.987 3.573 0s0.987 2.586 0 3.573z"></path>
<path  opacity="0.5" d="M17.906 17.906c-0.987 0.987-2.586 0.987-3.573 0s-0.987-2.586 0-3.573c0.987-0.987 2.586-0.987 3.573 0s0.987 2.586 0 3.573z"></path>
<path  opacity="0.5" d="M23.86 23.86c-0.987 0.987-2.586 0.987-3.573 0s-0.987-2.586 0-3.573c0.987-0.987 2.586-0.987 3.573 0s0.987 2.586 0 3.573z"></path>
<path  d="M5.997 17.906c-0.987 0.987-2.586 0.987-3.573 0s-0.987-2.586 0-3.573c0.987-0.987 2.586-0.987 3.573 0s0.987 2.586 0 3.573z"></path>
<path  opacity="0.5" d="M11.951 23.86c-0.987 0.987-2.586 0.987-3.573 0s-0.987-2.586 0-3.573c0.987-0.987 2.586-0.987 3.573 0s0.987 2.586 0 3.573z"></path>
<path  opacity="0.25" d="M17.906 29.815c-0.987 0.987-2.586 0.987-3.573 0s-0.987-2.586 0-3.573c0.987-0.987 2.586-0.987 3.573 0s0.987 2.586 0 3.573z"></path>
</svg>
