<!-- Generated by IcoMoon.io -->
<svg version="1.1" xmlns="http://www.w3.org/2000/svg" width="153" height="32" viewBox="0 0 153 32">
<title>microsoft</title>
<path fill="#36536b" d="M16.436 16.516v15.484h-15.628v-15.484h15.628zM33.106 16.516v15.484h-15.629v-15.484h15.628zM115.221 11.585c0.472 0 1.015 0.056 1.612 0.165 0.601 0.11 1.095 0.246 1.471 0.405l0.052 0.022v2.95l-0.134-0.090c-0.416-0.276-0.897-0.502-1.41-0.653l-0.038-0.010c-0.496-0.157-1.066-0.249-1.657-0.252h-0.001c-0.588 0-1.056 0.131-1.394 0.388-0.333 0.256-0.495 0.572-0.495 0.966 0 0.446 0.131 0.797 0.39 1.046 0.269 0.258 0.923 0.593 1.942 0.996 1.28 0.509 2.197 1.084 2.725 1.713 0.533 0.632 0.802 1.416 0.802 2.331 0 1.268-0.502 2.304-1.491 3.081-0.984 0.772-2.331 1.163-4.005 1.163-0.542 0-1.166-0.072-1.853-0.212-0.689-0.139-1.272-0.318-1.735-0.529l-0.051-0.023v-3.111l0.136 0.097c0.526 0.377 1.134 0.688 1.786 0.903l0.048 0.014c0.66 0.215 1.261 0.323 1.789 0.323 1.425 0 2.116-0.444 2.116-1.355 0-0.32-0.069-0.579-0.203-0.769-0.138-0.193-0.383-0.392-0.729-0.59-0.353-0.201-0.908-0.457-1.655-0.76-0.888-0.377-1.557-0.746-1.99-1.099-0.417-0.334-0.748-0.756-0.97-1.239l-0.009-0.021c-0.211-0.48-0.318-1.046-0.318-1.683 0-1.225 0.498-2.238 1.477-3.010 0.974-0.768 2.25-1.156 3.793-1.156zM142.207 5.161c0.758 0 1.37 0.081 1.819 0.239l0.057 0.021v2.742l-0.121-0.054c-0.418-0.196-0.906-0.313-1.421-0.32l-0.002-0c-0.643 0-1.147 0.204-1.5 0.605-0.355 0.407-0.536 1.015-0.536 1.81v1.708h4.856v-3.066l0.061-0.019 3.186-0.962v4.046h3.275v2.602h-3.274v6.405c0 0.821 0.149 1.408 0.444 1.743 0.29 0.332 0.759 0.501 1.394 0.501 0.167 0 0.385-0.036 0.646-0.108 0.258-0.071 0.48-0.166 0.658-0.283l0.134-0.087v2.626l-0.043 0.026c-0.196 0.109-0.526 0.213-1.013 0.316-0.417 0.094-0.896 0.15-1.388 0.153h-0.002c-2.705 0-4.077-1.454-4.077-4.324v-6.968h-4.855v10.965h-3.273v-10.966h-2.281v-2.601h2.281v-1.879c0-0.942 0.211-1.795 0.627-2.533 0.419-0.736 1.022-1.325 1.748-1.715l0.023-0.011c0.757-0.407 1.625-0.612 2.581-0.612zM127.783 11.585c2.137 0 3.83 0.628 5.034 1.864 1.204 1.237 1.814 2.957 1.814 5.115 0 2.184-0.65 3.957-1.933 5.267-1.283 1.311-3.048 1.975-5.246 1.975-2.109 0-3.813-0.63-5.065-1.876-1.253-1.245-1.888-2.952-1.888-5.078 0-2.236 0.65-4.026 1.933-5.318 1.284-1.293 3.084-1.949 5.351-1.949zM101.562 11.585c2.136 0 3.83 0.628 5.033 1.864s1.815 2.957 1.815 5.115c0 2.184-0.65 3.957-1.933 5.267-1.283 1.311-3.048 1.975-5.246 1.975-2.109 0-3.813-0.63-5.065-1.876-1.253-1.245-1.889-2.952-1.889-5.078 0-2.236 0.651-4.026 1.934-5.318 1.283-1.293 3.084-1.949 5.351-1.949zM80.283 11.585c0.578 0 1.185 0.064 1.806 0.192 0.626 0.127 1.128 0.295 1.497 0.499l0.044 0.025v3.080l-0.136-0.097c-0.981-0.702-2.016-1.056-3.078-1.056-1.243 0-2.264 0.415-3.034 1.235-0.772 0.823-1.163 1.937-1.163 3.311 0 1.367 0.376 2.453 1.117 3.227 0.739 0.772 1.758 1.164 3.027 1.164 0.457 0 0.978-0.1 1.549-0.296 0.604-0.209 1.128-0.484 1.6-0.826l-0.018 0.012 0.136-0.098v2.924l-0.043 0.024c-1.052 0.599-2.364 0.901-3.901 0.901-1.317 0-2.506-0.286-3.535-0.849-1.027-0.566-1.852-1.389-2.404-2.384l-0.016-0.031c-0.575-1.036-0.866-2.213-0.866-3.494 0-1.464 0.3-2.777 0.891-3.899 0.595-1.123 1.482-2.022 2.561-2.616l0.033-0.017c1.125-0.619 2.449-0.933 3.933-0.933zM92.748 11.677c0.54 0 0.965 0.064 1.267 0.19l0.052 0.022v3.218l-0.134-0.097c-0.151-0.106-0.405-0.207-0.755-0.301-0.29-0.084-0.624-0.135-0.969-0.14l-0.003-0c-0.86 0-1.564 0.366-2.091 1.090-0.536 0.733-0.806 1.701-0.806 2.882v6.94h-3.234v-13.567h3.234v2.349h0.034c0.302-0.763 0.697-1.374 1.244-1.82 0.573-0.476 1.317-0.765 2.127-0.765 0.012 0 0.025 0 0.037 0l-0.002-0zM70.637 11.912v13.567h-3.233v-13.567h3.234zM48.279 6.548l5.634 14.061 5.805-14.061h4.568v18.932h-3.3v-14.568h-0.106l-5.857 14.568h-2.34l-5.95-14.569h-0.106v14.569h-3.102v-18.932h4.754zM127.612 14.228c-1.171 0-2.099 0.394-2.759 1.173-0.664 0.783-1.001 1.91-1.001 3.348 0 1.395 0.338 2.492 1.001 3.262 0.661 0.766 1.597 1.155 2.785 1.155 1.195 0 2.11-0.382 2.718-1.133 0.612-0.757 0.923-1.889 0.923-3.362 0-1.455-0.33-2.572-0.981-3.321-0.647-0.743-1.551-1.121-2.686-1.121zM101.39 14.228c-1.171 0-2.099 0.394-2.758 1.173-0.665 0.783-1.001 1.91-1.001 3.348 0 1.395 0.335 2.492 1 3.262 0.661 0.766 1.597 1.155 2.785 1.155 1.195 0 2.11-0.382 2.717-1.133 0.613-0.757 0.923-1.889 0.923-3.362 0-1.455-0.33-2.572-0.981-3.321-0.647-0.743-1.55-1.121-2.685-1.121zM16.436 0v15.484h-15.628v-15.484h15.628zM33.105 0v15.484h-15.628v-15.484h15.628zM69.053 6.133c0.561 0 1.033 0.184 1.406 0.547 0.374 0.364 0.564 0.807 0.564 1.317 0 0.519-0.195 0.959-0.578 1.305-0.382 0.345-0.85 0.519-1.39 0.519-0.542 0-1.007-0.175-1.384-0.519-0.352-0.313-0.572-0.766-0.572-1.272 0-0.012 0-0.023 0-0.035l-0 0.002c0-0.529 0.195-0.975 0.578-1.332 0.381-0.354 0.845-0.533 1.377-0.533z"></path>
</svg>
