<!-- Generated by IcoMoon.io -->
<svg version="1.1" xmlns="http://www.w3.org/2000/svg" width="171" height="32" viewBox="0 0 171 32">
<title>nvidia</title>
<path  d="M49.337 0v32h-30.35v-3.758c0.642 0.071 1.284 0.107 1.962 0.107 7.025 0 19.418-3.579 24.732-8.031-0.785-0.784-4.583-2.582-5.51-3.33-5.6 4.809-11.376 8.886-19.365 8.886-0.607 0-1.231-0.054-1.836-0.124v-2.671c0.731 0.123 1.462 0.194 2.21 0.194 8.577 0 16.815-10.006 16.815-10.006s-7.185-9.386-18.187-9.012l-0.857 0.053v-4.309h30.385zM18.97 4.309l-0.001 2.35-0.017 0.001v0.001l-0.455 0.042c-8.283 0.849-12.492 6.852-12.646 7.074-0.004 0.006 3.33 10.762 13.102 11.973v2.492c-13.319-1.247-18.063-14.958-18.063-14.958s8.382-8.192 18.080-8.976zM111.003 6.191v20.886h-5.974v-20.887h5.974zM123.040 6.191c4.77 0 7.963 0.566 10.153 3.487 1.237 1.628 1.937 4.249 1.937 7.188 0 3.204-0.825 6.142-2.117 7.47-1.813 1.893-3.499 2.742-8.665 2.742h-9.686v-20.887zM86.661 6.191l4.772 16.55 4.987-16.55h6.098l-6.889 20.886h-8.609l-6.817-20.887h6.458zM143.902 6.191v20.886h-5.974v-20.887h5.974zM69.009 6.154c5.12 0.037 10.278 1.247 10.278 9.362v11.542h-5.847v-9.541c0-2.922-0.377-4.532-1.328-5.524-0.735-0.779-1.812-1.151-3.354-1.151l-4.7-0.017v16.233h-6.027v-20.905zM162.663 6.188l8.414 20.852h-6.404l-1.255-3.681h-9.866l-1.328 3.7h-5.883l8.341-20.87h7.983zM18.951 9.545v2.494h-0.017c-3.086-0.374-5.51 2.511-5.51 2.511l0.010 0.033c0.13 0.432 1.566 4.896 5.518 6.235v2.279c-7.382-1.318-9.433-8.993-9.433-8.993l0.086-0.091 0.11-0.11c0.816-0.807 4.155-3.804 9.237-4.357zM123.147 10.721h-2.565v11.877h2.565c3.73 0 6.134-1.664 6.134-5.947s-2.404-5.93-6.134-5.93zM32.913 13.426l-0.023 0.033-0.122 0.161c-0.914 1.201-6.020 7.569-11.462 7.569-0.802 0-1.588-0.123-2.336-0.373v-8.762c3.084 0.374 3.708 1.728 5.546 4.809l4.118-3.455s-3.013-3.936-8.078-3.936c-0.079-0.002-0.172-0.003-0.266-0.003-0.472 0-0.937 0.027-1.395 0.080l0.056-0.005v-2.884h0.018l-0.001-0.002 0.411-0.023c0.143-0.006 0.286-0.011 0.428-0.011 7.916-0.249 13.105 6.802 13.105 6.802zM158.556 9.995l-3.732 9.772h7.355l-3.623-9.772z"></path>
</svg>
