<!-- Generated by IcoMoon.io -->
<svg version="1.1" xmlns="http://www.w3.org/2000/svg" width="250" height="32" viewBox="0 0 250 32">
<title>oracle</title>
<path  d="M107.447 20.819h16.446l-8.696-13.837-15.96 25.016h-7.262l19.413-30.048c0.844-1.186 2.213-1.95 3.761-1.95 0.017 0 0.034 0 0.051 0l-0.003-0c1.51 0 2.918 0.708 3.735 1.897l19.49 30.103h-7.264l-3.426-5.591h-16.653l-3.633-5.591zM182.899 26.409v-26.108h-6.163v28.661c0 0.785 0.307 1.544 0.894 2.125 0.589 0.582 1.382 0.911 2.251 0.911h28.109l3.633-5.591h-28.725zM80.922 21.728c5.986 0 10.846-4.781 10.846-10.699 0-5.92-4.86-10.726-10.846-10.726h-26.965v31.697h6.161v-26.106h20.395c0.006-0 0.013-0 0.021-0 2.839 0 5.141 2.299 5.146 5.136v0.001c-0.006 2.836-2.307 5.133-5.144 5.133-0.008 0-0.016-0-0.024-0h0.001l-17.376-0.024 18.4 15.861h8.952l-12.38-10.27h2.814zM16.026 32c-8.847 0-16.026-7.083-16.026-15.836s7.179-15.861 16.026-15.861h18.628c8.849 0 16.024 7.108 16.024 15.861s-7.177 15.836-16.024 15.836h-18.628zM34.24 26.409c5.732 0 10.376-4.58 10.376-10.246s-4.644-10.27-10.376-10.27h-17.801c-5.73 0-10.374 4.604-10.374 10.27s4.644 10.246 10.374 10.246h17.801zM151.285 32c-8.847 0-16.036-7.083-16.036-15.836s7.189-15.861 16.038-15.861h22.125l-3.608 5.591h-18.108c-5.728 0-10.383 4.604-10.383 10.27s4.655 10.246 10.383 10.246h22.227l-3.633 5.591h-19.002zM226.662 26.409c-4.73 0-8.747-3.136-9.975-7.464h26.345l3.631-5.591h-29.976c1.227-4.299 5.244-7.462 9.976-7.462h18.082l3.657-5.591h-22.15c-8.851 0-16.038 7.108-16.038 15.861s7.187 15.834 16.038 15.834h19.004l3.631-5.591h-22.227z"></path>
</svg>
