<!-- Generated by IcoMoon.io -->
<svg version="1.1" xmlns="http://www.w3.org/2000/svg" width="247" height="32" viewBox="0 0 247 32">
<title>tesla</title>
<path fill="#36536b" d="M168.371 0.088v25.653h27.746c-0.706 2.645-2.379 4.937-5.463 6.259h-28.536v-31.912h6.253zM144.676 0.088c-0.704 2.733-3.435 5.289-6.782 6.259h-22.020l0.088 6.347h28.536v19.305h-36.552c1.498-3.087 4.493-5.466 8.017-6.436h22.37v-6.609h-28.536v-18.867zM39.898 0v0.088c-0.698 2.829-3.055 5.481-6.374 6.364h-9.952l-0.525 0.177v25.37h-6.199v-25.37l-0.523-0.177h-9.952c-3.23-0.708-5.677-3.535-6.374-6.364l39.898-0.088zM244.296 12.695v19.305h-6.165v-12.87h-22.551v12.87h-6.165v-19.305h34.88zM91.827 25.562c-0.616 2.822-3.081 5.818-6.43 6.436h-23.782c-3.347-0.617-5.813-3.614-6.517-6.436zM91.827 12.604c-0.616 2.822-3.081 5.816-6.43 6.436h-23.782c-3.347-0.706-5.813-3.614-6.517-6.436zM245.088 0c-0.704 2.822-3.081 5.816-6.43 6.436h-23.782c-3.258-0.706-5.724-3.614-6.43-6.436zM91.827 0c-0.616 2.822-3.081 5.816-6.43 6.436h-23.782c-3.347-0.706-5.813-3.614-6.517-6.436z"></path>
</svg>
